<svg width="219" height="31" viewBox="0 0 219 31" fill="none" xmlns="http://www.w3.org/2000/svg">
<path d="M96.455 19.2578C96.6695 18.9615 97.001 18.7443 97.3325 18.685C97.664 18.6258 98.0345 18.685 98.3075 18.9023C98.8729 19.317 99.1654 20.0478 99.1264 20.7588C99.1264 21.1143 98.9899 21.4698 98.8144 21.766C98.6389 22.0623 98.405 22.2795 98.1515 22.477C97.6445 22.8523 97.001 22.9707 96.416 22.8128C96.1236 22.7338 95.8506 22.5955 95.5971 22.398C95.3436 22.2005 95.1486 21.9635 94.9731 21.7068C94.6221 21.1933 94.4076 20.5415 94.3686 19.8898C94.3491 19.554 94.3686 19.238 94.4271 18.922C94.4856 18.606 94.6026 18.29 94.7196 18.0135C94.9926 17.4408 95.4021 16.9668 95.8896 16.6311C96.3575 16.2953 96.884 16.0781 97.43 15.9398C97.9565 15.8016 98.5025 15.7423 99.0484 15.7423C99.5944 15.7423 100.14 15.8016 100.667 15.9003C100.94 15.9398 101.193 16.0188 101.466 16.0978C101.72 16.1768 101.993 16.2756 102.246 16.3743C102.753 16.5916 103.241 16.8483 103.709 17.1445C103.943 17.2828 104.177 17.4803 104.391 17.6383C104.606 17.8358 104.82 18.0135 105.015 18.2308C105.23 18.4283 105.405 18.6653 105.6 18.8825C105.776 19.1195 105.951 19.3565 106.107 19.6133C106.263 19.8503 106.4 20.1268 106.556 20.4033C106.614 20.5415 106.673 20.6798 106.731 20.818L106.829 21.0353C106.829 21.0353 106.887 21.1735 106.907 21.2525C107.316 22.398 107.531 23.6422 107.433 24.8865C107.394 25.4987 107.277 26.1307 107.063 26.7035C106.868 27.2762 106.595 27.849 106.244 28.323C105.912 28.8167 105.503 29.2709 105.054 29.6264C104.606 29.9819 104.118 30.2979 103.592 30.4954L103.397 30.5744C103.397 30.5744 103.26 30.6139 103.202 30.6337C103.065 30.6732 102.929 30.7127 102.792 30.7522C102.519 30.7917 102.246 30.8509 101.954 30.8509C101.388 30.8509 100.823 30.7522 100.296 30.5349C99.2434 30.0807 98.3465 29.1327 97.898 27.9477C97.664 27.3552 97.547 26.7232 97.5275 26.0715C97.5275 25.7357 97.547 25.4 97.625 25.084C97.6835 24.768 97.8005 24.452 97.9565 24.1557C98.093 23.8595 98.2685 23.583 98.483 23.346C98.6974 23.109 98.9119 22.8917 99.1849 22.714C99.3019 22.6153 99.4384 22.556 99.5749 22.477C99.7114 22.4178 99.8479 22.3388 100.004 22.2993C100.082 22.2795 100.14 22.24 100.218 22.2203L100.452 22.1808C100.452 22.1808 100.608 22.161 100.686 22.1413C100.764 22.1413 100.842 22.1413 100.92 22.1413C101.564 22.1413 102.227 22.4178 102.734 22.9115C102.987 23.1682 103.221 23.4645 103.397 23.8002C103.572 24.136 103.689 24.531 103.767 24.926V25.005C103.865 25.4987 103.572 25.9727 103.143 26.0715C102.714 26.1702 102.285 25.8345 102.207 25.3407C102.207 25.242 102.207 25.163 102.207 25.0642C102.246 24.6692 102.149 24.2347 101.895 23.899C101.661 23.5435 101.291 23.3065 100.881 23.2472C100.823 23.2472 100.784 23.2472 100.725 23.2472C100.667 23.2472 100.628 23.2472 100.569 23.2472H100.394C100.394 23.2472 100.277 23.2867 100.218 23.2867C100.101 23.2867 100.004 23.346 99.8869 23.3855C99.8284 23.4052 99.7894 23.425 99.7309 23.4447C99.6724 23.4645 99.6334 23.4842 99.5749 23.5237C99.3604 23.6422 99.1849 23.8002 99.0094 23.9582C98.8339 24.136 98.6779 24.3335 98.561 24.5705C98.3075 25.0247 98.171 25.558 98.171 26.0912C98.171 26.6245 98.288 27.1972 98.4635 27.691C98.8534 28.718 99.5944 29.5474 100.511 29.9622C100.959 30.1794 101.466 30.2782 101.954 30.2584C102.207 30.2584 102.441 30.2189 102.695 30.1794C102.812 30.1597 102.948 30.1202 103.065 30.0807C103.124 30.0807 103.182 30.0412 103.241 30.0214L103.416 29.9622C103.904 29.8042 104.352 29.5277 104.762 29.1919C105.191 28.876 105.542 28.4612 105.854 28.0267C106.166 27.5922 106.419 27.0787 106.614 26.5455C106.809 26.0122 106.926 25.4395 106.965 24.8865C107.024 24.3137 106.965 23.741 106.907 23.1485L106.829 22.714L106.79 22.4968L106.731 22.2795L106.614 21.8648L106.478 21.45C106.478 21.45 106.439 21.3118 106.4 21.2525L106.322 21.055C106.263 20.9168 106.205 20.7983 106.146 20.66C106.01 20.4033 105.893 20.1465 105.737 19.9293C105.6 19.6923 105.425 19.475 105.269 19.238C105.093 19.0405 104.918 18.8035 104.723 18.6258C104.528 18.4283 104.333 18.2505 104.118 18.0728C103.904 17.9148 103.689 17.737 103.475 17.5988C103.026 17.3025 102.558 17.0458 102.071 16.8483C101.837 16.7496 101.583 16.6706 101.33 16.5718C101.076 16.5126 100.823 16.4336 100.569 16.3941C100.062 16.2953 99.5554 16.2361 99.0289 16.2361C98.5219 16.2361 97.9955 16.2953 97.508 16.4336C97.0205 16.5718 96.533 16.7693 96.1236 17.0655C95.7141 17.3618 95.3631 17.7765 95.1291 18.2505C94.9146 18.7443 94.8171 19.2973 94.8561 19.8503C94.8951 20.4033 95.0901 20.9168 95.3826 21.3513C95.5386 21.5488 95.7141 21.766 95.8896 21.9043C96.0846 22.0425 96.2991 22.161 96.5135 22.2005C96.962 22.2993 97.4495 22.2005 97.82 21.924C98.015 21.7858 98.171 21.5883 98.3075 21.3908C98.4245 21.1933 98.5024 20.9563 98.5024 20.7193C98.5024 20.4823 98.4635 20.2453 98.366 20.028C98.3075 19.9293 98.249 19.8305 98.1905 19.7318C98.1125 19.633 98.0345 19.5738 97.9565 19.5145C97.8005 19.4158 97.6055 19.3763 97.4105 19.4158C97.235 19.4553 97.0595 19.5738 96.9425 19.7318C96.8255 19.8898 96.611 19.9293 96.4745 19.791C96.3381 19.6528 96.2991 19.4158 96.416 19.2578H96.455Z" fill="white"/>
<path d="M97.0202 12.0688C97.0592 12.1676 97.0982 12.2466 97.1372 12.3058C97.1762 12.3651 97.2347 12.3848 97.3127 12.4046C97.4687 12.4441 97.6832 12.3651 97.8587 12.2466C98.0537 12.1281 98.2097 11.9701 98.3267 11.7528C98.4437 11.5553 98.5022 11.3183 98.5022 11.0616C98.5022 10.8246 98.4632 10.5678 98.3462 10.3703C98.2487 10.1728 98.0732 9.95558 97.8977 9.81733C97.5272 9.50133 97.0592 9.38283 96.5913 9.46183C96.3573 9.50133 96.1428 9.60008 95.9478 9.71858C95.7528 9.85683 95.5773 10.0346 95.4213 10.2518C95.1093 10.6666 94.9143 11.1801 94.8558 11.7331C94.7973 12.2861 94.8753 12.8391 95.0898 13.3328C95.3043 13.8265 95.6358 14.2413 96.0648 14.5573C96.9032 15.1893 97.9562 15.4263 98.9701 15.446C100.004 15.446 101.037 15.2485 102.012 14.8535C102.987 14.4585 103.903 13.866 104.683 13.0958C105.463 12.3256 106.068 11.3578 106.458 10.2716C106.653 9.73833 106.789 9.16558 106.867 8.59284C106.945 8.02009 106.984 7.4276 106.945 6.85485C106.848 5.70936 106.458 4.58362 105.834 3.69488C105.21 2.78639 104.332 2.11489 103.377 1.75939C102.889 1.58165 102.382 1.4829 101.895 1.4829C101.408 1.4829 100.901 1.60139 100.452 1.81864C99.5356 2.25314 98.7947 3.10238 98.4242 4.12937C98.2487 4.64287 98.1317 5.21561 98.1512 5.74886C98.1512 6.28211 98.3267 6.81535 98.5802 7.24985C98.8531 7.68434 99.2041 8.03984 99.6331 8.25709C99.8476 8.35584 100.062 8.43484 100.277 8.47434C100.394 8.49409 100.511 8.49409 100.608 8.51384C100.706 8.51384 100.823 8.51384 100.92 8.47434C101.33 8.39534 101.759 8.13859 102.012 7.82259C102.149 7.66459 102.226 7.48685 102.246 7.32885C102.265 7.17085 102.246 7.0721 102.187 6.97335C101.934 6.53885 102.051 5.96611 102.441 5.68961C102.811 5.41311 103.318 5.53161 103.572 5.96611C103.63 6.06486 103.669 6.18336 103.689 6.30186L103.728 6.5191C103.767 6.7561 103.767 7.01285 103.728 7.24985C103.689 7.48685 103.63 7.72384 103.533 7.92134C103.357 8.33609 103.084 8.63234 102.811 8.86933C102.265 9.32358 101.642 9.56058 101.018 9.58033C100.862 9.58033 100.706 9.58033 100.53 9.56058C100.374 9.54083 100.218 9.50133 100.082 9.46183C99.7891 9.38283 99.4966 9.24458 99.2431 9.06683C98.7167 8.73109 98.2682 8.23734 97.9757 7.64485C97.6637 7.0721 97.5077 6.40061 97.5077 5.72911C97.5077 5.05762 97.6247 4.42562 97.8587 3.81338C98.3072 2.60864 99.1846 1.64089 100.238 1.1669C100.764 0.9299 101.33 0.811401 101.895 0.811401C102.46 0.811401 103.006 0.94965 103.533 1.14715C104.586 1.54215 105.522 2.31239 106.224 3.29988C106.906 4.28737 107.335 5.51186 107.433 6.7561C107.491 7.3881 107.433 8.02009 107.355 8.63234C107.257 9.24458 107.121 9.85683 106.906 10.4296C106.497 11.5751 105.834 12.6218 105.015 13.4315C104.196 14.261 103.24 14.8733 102.207 15.288C101.193 15.7028 100.101 15.92 99.0091 15.92C98.4632 15.92 97.9172 15.841 97.3712 15.7028C96.8447 15.5448 96.3183 15.3275 95.8308 14.972C95.3628 14.6363 94.9533 14.1425 94.6998 13.55C94.4464 12.9576 94.3294 12.2861 94.3879 11.6343C94.4464 10.9826 94.6803 10.3506 95.0508 9.83708C95.2458 9.58033 95.4408 9.36308 95.6943 9.16558C95.9478 8.98783 96.2403 8.86934 96.5328 8.81009C97.1177 8.69159 97.7612 8.84959 98.2487 9.26433C98.5022 9.46183 98.7167 9.71858 98.8726 10.0346C99.0286 10.3506 99.1066 10.7061 99.1066 11.0616C99.1066 11.4171 99.0091 11.7923 98.8531 12.0886C98.6972 12.4046 98.4437 12.6613 98.1707 12.8391C97.8977 13.0168 97.5857 13.155 97.1957 13.0958C97.0007 13.076 96.8057 12.9773 96.6692 12.8193C96.5133 12.6613 96.4353 12.4836 96.3768 12.3058C96.3183 12.1083 96.3768 11.8911 96.5718 11.8121C96.7472 11.7331 96.9422 11.8318 97.0007 12.0293L97.0202 12.0688Z" fill="white"/>
<path d="M97.4886 16.4533L3.81493 16.0188C3.81493 16.0188 3.65894 15.9398 3.65894 15.841C3.65894 15.7423 3.71743 15.683 3.81493 15.683L97.4886 15.2485C97.7811 15.2485 98.0151 15.5053 98.0151 15.841C98.0151 16.1768 97.7811 16.4335 97.4886 16.4533Z" fill="white"/>
<path d="M2.27442 17.8555C1.29946 17.8555 0.5 16.947 0.5 15.841C0.5 14.735 1.29946 13.8265 2.27442 13.8265C3.24937 13.8265 4.04884 14.735 4.04884 15.841C4.04884 16.947 3.24937 17.8555 2.27442 17.8555ZM2.27442 14.024C1.39696 14.024 0.675492 14.8338 0.675492 15.841C0.675492 16.8483 1.39696 17.658 2.27442 17.658C3.15188 17.658 3.87335 16.8483 3.87335 15.841C3.87335 14.8338 3.15188 14.024 2.27442 14.024Z" fill="white"/>
<path d="M3.28834 15.841C3.28834 16.4928 2.82036 17.0063 2.25489 17.0063C1.68941 17.0063 1.22144 16.4928 1.22144 15.841C1.22144 15.1893 1.68941 14.6758 2.25489 14.6758C2.82036 14.6758 3.28834 15.1893 3.28834 15.841Z" fill="white"/>
<path d="M97.4495 16.3941C96.7476 16.3151 96.0651 16.6706 95.4996 17.1841C94.9147 17.6975 94.3882 18.3098 93.8812 18.9615C92.8672 20.2453 91.8728 21.5883 90.7224 22.793C90.1374 23.3855 89.5329 23.9385 88.8699 24.4125C88.5384 24.6495 88.1875 24.8667 87.8365 25.0445C87.4855 25.242 87.0955 25.4197 86.725 25.5382C85.1651 26.0122 83.4297 25.716 82.1037 24.6692C81.4408 24.1557 80.8753 23.4447 80.5048 22.635C80.1148 21.8253 79.9588 20.8575 80.0758 19.949C80.2903 18.1123 81.5578 16.4928 83.1567 16.1966C83.5467 16.1373 83.9562 16.1768 84.3461 16.2953C84.7361 16.4138 85.0871 16.6311 85.3991 16.9076C85.7111 17.1841 85.9646 17.5395 86.1401 17.9345C86.335 18.3295 86.413 18.7838 86.3935 19.238C86.3545 20.1465 85.8476 20.9958 85.0871 21.3513C84.7166 21.529 84.2876 21.5488 83.8782 21.4303C83.6832 21.371 83.4882 21.2723 83.3127 21.0945C83.1567 20.9365 83.0202 20.6995 82.9617 20.4428C82.9422 20.3243 83.0007 20.2058 83.0982 20.186C83.1957 20.1663 83.2932 20.2255 83.3127 20.344C83.3127 20.344 83.3127 20.344 83.3127 20.3638C83.3517 20.7193 83.6247 20.9958 83.9562 21.134C84.2876 21.2723 84.6776 21.2525 85.0091 21.134C85.3406 20.9958 85.6526 20.7193 85.8671 20.3835C86.0816 20.0478 86.2181 19.633 86.2376 19.2183C86.2961 18.369 85.8671 17.5593 85.2821 17.0458C84.6971 16.5323 83.9172 16.3151 83.1957 16.4731C82.8252 16.5521 82.4937 16.7101 82.1817 16.9471C81.8698 17.1643 81.5968 17.4408 81.3628 17.7765C80.8948 18.4085 80.6023 19.2183 80.5438 20.028C80.3878 21.6673 81.2263 23.267 82.4157 24.1952C83.6052 25.1235 85.1846 25.4 86.5885 24.9457C86.9395 24.8272 87.271 24.689 87.6025 24.4915C87.9535 24.3137 88.2655 24.0965 88.5774 23.8792C89.2014 23.425 89.8059 22.9115 90.3714 22.3388C91.5023 21.1933 92.4773 19.87 93.5302 18.5863C94.0567 17.9543 94.6027 17.3026 95.2461 16.7693C95.5581 16.5126 95.9091 16.2558 96.2991 16.0978C96.6891 15.9398 97.1181 15.8608 97.5275 15.9201C97.6445 15.9201 97.742 16.0583 97.7225 16.1966C97.7225 16.3348 97.6055 16.4336 97.4885 16.4138L97.4495 16.3941Z" fill="white"/>
<path d="M97.4691 15.7028C97.0596 15.7621 96.6306 15.7028 96.2406 15.5448C95.8507 15.3868 95.4997 15.1498 95.1682 14.8931C94.5247 14.3598 93.9788 13.7278 93.4523 13.0959C92.3993 11.8121 91.4049 10.4889 90.2739 9.36314C89.7085 8.79039 89.1235 8.2769 88.48 7.82265C88.168 7.6054 87.8365 7.4079 87.505 7.2104C87.1736 7.01291 86.8421 6.87466 86.4911 6.75616C85.0872 6.32166 83.5272 6.59816 82.3183 7.54615C81.1288 8.47439 80.3099 10.0939 80.4659 11.7331C80.5439 12.5429 80.8169 13.3329 81.3043 13.9648C81.5383 14.2808 81.8113 14.5573 82.1233 14.7746C82.4353 15.0116 82.7668 15.1696 83.1373 15.2288C83.8587 15.3868 84.6387 15.1696 85.2237 14.6363C85.8086 14.1228 86.2376 13.3131 86.1596 12.4639C86.1401 12.0491 86.0036 11.6344 85.7891 11.2986C85.5746 10.9629 85.2627 10.7061 84.9312 10.5481C84.5997 10.4099 84.2097 10.4099 83.8782 10.5481C83.5467 10.6864 83.2932 10.9629 83.2347 11.3381C83.2347 11.4566 83.1178 11.5356 83.0203 11.5159C82.9228 11.5159 82.8448 11.3974 82.8643 11.2789C82.8643 11.2789 82.8643 11.2789 82.8643 11.2591C82.9228 11.0024 83.0593 10.7851 83.2152 10.6074C83.3712 10.4296 83.5662 10.3309 83.7807 10.2716C84.1902 10.1531 84.5997 10.1729 84.9897 10.3506C85.7306 10.7061 86.2571 11.5554 86.2961 12.4639C86.3156 12.9181 86.2376 13.3724 86.0426 13.7673C85.8671 14.1623 85.6136 14.5178 85.3017 14.7943C84.9897 15.0708 84.6387 15.2881 84.2487 15.4066C83.8587 15.5251 83.4687 15.5646 83.0593 15.5053C81.4603 15.2288 80.1734 13.6094 79.9589 11.7726C79.8419 10.8641 79.9979 9.89638 80.3879 9.06689C80.7584 8.25714 81.3043 7.54615 81.9673 7.01291C83.2932 5.94641 85.0287 5.65017 86.5886 6.12416C86.9786 6.24266 87.3686 6.40066 87.7 6.61791C88.051 6.79566 88.402 7.01291 88.7335 7.2499C89.3965 7.7239 90.0204 8.2769 90.6054 8.86939C91.7754 10.0544 92.7698 11.3974 93.7838 12.6614C94.2907 13.2934 94.8172 13.9253 95.4217 14.4191C96.0067 14.9128 96.6891 15.2683 97.3911 15.1893C97.5081 15.1893 97.6251 15.2683 97.6251 15.4066C97.6251 15.5448 97.5471 15.6633 97.4301 15.6831L97.4691 15.7028Z" fill="white"/>
<path d="M84.0147 20.2255C84.0147 20.581 83.7613 20.8772 83.4493 20.8772C83.1373 20.8772 82.8838 20.581 82.8838 20.2255C82.8838 19.87 83.1373 19.5737 83.4493 19.5737C83.7613 19.5737 84.0147 19.87 84.0147 20.2255Z" fill="white"/>
<path d="M83.4297 12.0885C83.742 12.0885 83.9952 11.7967 83.9952 11.4368C83.9952 11.0768 83.742 10.785 83.4297 10.785C83.1174 10.785 82.8643 11.0768 82.8643 11.4368C82.8643 11.7967 83.1174 12.0885 83.4297 12.0885Z" fill="white"/>
<path d="M97.8786 11.8318C97.8786 12.3453 97.5082 12.76 97.0597 12.76C96.6112 12.76 96.2407 12.3453 96.2407 11.8318C96.2407 11.3183 96.6112 10.9036 97.0597 10.9036C97.5082 10.9036 97.8786 11.3183 97.8786 11.8318Z" fill="white"/>
<path d="M103.787 6.63759C103.787 7.40783 103.241 8.03983 102.558 8.03983C101.876 8.03983 101.33 7.40783 101.33 6.63759C101.33 5.86735 101.876 5.23535 102.558 5.23535C103.241 5.23535 103.787 5.86735 103.787 6.63759Z" fill="white"/>
<path d="M97.0402 20.7587C97.4925 20.7587 97.8591 20.3431 97.8591 19.8305C97.8591 19.3178 97.4925 18.9022 97.0402 18.9022C96.5878 18.9022 96.2212 19.3178 96.2212 19.8305C96.2212 20.3431 96.5878 20.7587 97.0402 20.7587Z" fill="white"/>
<path d="M102.519 26.6046C101.837 26.6046 101.291 25.9727 101.291 25.2024C101.291 24.4322 101.837 23.8002 102.519 23.8002C103.202 23.8002 103.748 24.4322 103.748 25.2024C103.748 25.9727 103.202 26.6046 102.519 26.6046Z" fill="white"/>
<path d="M118.236 12.4441C118.021 12.7404 117.69 12.9576 117.358 13.0169C117.027 13.0761 116.656 13.0169 116.383 12.7996C115.818 12.3849 115.525 11.6541 115.564 10.9431C115.564 10.5876 115.701 10.2321 115.876 9.93588C116.052 9.63963 116.286 9.42238 116.539 9.22488C117.046 8.84964 117.69 8.73114 118.275 8.88914C118.567 8.96814 118.84 9.10638 119.094 9.30388C119.347 9.50138 119.542 9.73838 119.718 9.99513C120.069 10.5086 120.283 11.1604 120.322 11.8121C120.342 12.1479 120.322 12.4639 120.264 12.7799C120.205 13.0959 120.088 13.4118 119.971 13.6883C119.698 14.2611 119.289 14.7351 118.801 15.0708C118.333 15.4066 117.807 15.6238 117.261 15.7621C116.734 15.9003 116.188 15.9596 115.642 15.9596C115.096 15.9596 114.55 15.9003 114.024 15.8016C113.751 15.7621 113.497 15.6831 113.224 15.6041C112.971 15.5251 112.698 15.4263 112.444 15.3276C111.937 15.1103 111.45 14.8536 110.982 14.5573C110.748 14.4191 110.534 14.2216 110.3 14.0636C110.085 13.8661 109.871 13.6883 109.676 13.4711C109.461 13.2736 109.286 13.0366 109.091 12.8194C108.915 12.5824 108.74 12.3454 108.584 12.0886C108.428 11.8516 108.291 11.5751 108.135 11.2986C108.077 11.1604 108.018 11.0221 107.96 10.8839L107.862 10.6666C107.862 10.6666 107.804 10.5284 107.784 10.4494C107.375 9.30388 107.16 8.05964 107.258 6.8154C107.297 6.20316 107.414 5.57116 107.628 4.99842C107.823 4.42567 108.096 3.85293 108.447 3.37893C108.779 2.88519 109.188 2.43094 109.637 2.07544C110.085 1.71994 110.573 1.40395 111.099 1.20645L111.294 1.12745C111.294 1.12745 111.43 1.08795 111.489 1.0682C111.625 1.0287 111.762 0.989201 111.898 0.949701C112.171 0.910202 112.444 0.850952 112.737 0.850952C113.302 0.850952 113.868 0.949701 114.394 1.16695C115.447 1.6212 116.344 2.56919 116.793 3.75418C117.027 4.34667 117.144 4.97867 117.163 5.63041C117.163 5.96616 117.144 6.30191 117.066 6.6179C117.007 6.9339 116.89 7.2499 116.734 7.54615C116.598 7.84239 116.422 8.11889 116.208 8.35589C115.993 8.59289 115.779 8.81014 115.506 8.98788C115.389 9.08663 115.252 9.14588 115.116 9.22488C114.979 9.28413 114.843 9.36313 114.687 9.40263C114.609 9.42238 114.55 9.46188 114.472 9.48163L114.238 9.52113C114.238 9.52113 114.082 9.54088 114.004 9.56063C113.926 9.56063 113.848 9.56063 113.77 9.56063C113.127 9.56063 112.464 9.28413 111.957 8.79039C111.703 8.53364 111.469 8.23739 111.294 7.90164C111.119 7.5659 111.002 7.1709 110.924 6.7759V6.6969C110.826 6.20316 111.119 5.72916 111.547 5.63041C111.976 5.53166 112.405 5.86741 112.483 6.36116C112.483 6.45991 112.483 6.53891 112.483 6.63765C112.444 7.03265 112.542 7.46715 112.795 7.80289C113.029 8.15839 113.4 8.39539 113.809 8.45464C113.868 8.45464 113.907 8.45464 113.965 8.45464C114.024 8.45464 114.063 8.45464 114.121 8.45464H114.297C114.297 8.45464 114.414 8.41514 114.472 8.41514C114.589 8.41514 114.687 8.35589 114.804 8.31639C114.862 8.29664 114.901 8.27689 114.96 8.25714C115.018 8.23739 115.057 8.21764 115.116 8.17814C115.33 8.05964 115.506 7.90164 115.681 7.74365C115.857 7.5659 116.013 7.3684 116.13 7.1314C116.383 6.67715 116.52 6.14391 116.52 5.61066C116.52 5.07742 116.403 4.50467 116.227 4.01093C115.837 2.98393 115.096 2.15444 114.18 1.73969C113.731 1.52245 113.224 1.4237 112.737 1.44345C112.483 1.44345 112.249 1.48295 111.996 1.52245C111.879 1.5422 111.742 1.5817 111.625 1.6212C111.567 1.6212 111.509 1.6607 111.45 1.68045L111.275 1.73969C110.787 1.89769 110.339 2.17419 109.929 2.50994C109.5 2.82594 109.149 3.24068 108.837 3.67518C108.525 4.10968 108.272 4.62317 108.077 5.15642C107.882 5.68966 107.765 6.26241 107.726 6.8154C107.667 7.38815 107.726 7.96089 107.784 8.55339L107.862 8.98788L107.901 9.20513L107.96 9.42238L108.077 9.83713L108.213 10.2519C108.213 10.2519 108.252 10.3901 108.291 10.4494L108.369 10.6469C108.428 10.7851 108.486 10.9036 108.545 11.0419C108.681 11.2986 108.798 11.5554 108.954 11.7726C109.091 12.0096 109.266 12.2269 109.422 12.4639C109.598 12.6614 109.773 12.8984 109.968 13.0761C110.163 13.2736 110.358 13.4513 110.573 13.6291C110.787 13.7871 111.002 13.9648 111.216 14.1031C111.664 14.3993 112.132 14.6561 112.62 14.8536C112.854 14.9523 113.107 15.0313 113.361 15.1301C113.614 15.1893 113.868 15.2683 114.121 15.3078C114.628 15.4066 115.135 15.4658 115.662 15.4658C116.169 15.4658 116.695 15.4066 117.183 15.2683C117.67 15.1301 118.158 14.9326 118.567 14.6363C118.977 14.3401 119.328 13.9253 119.562 13.4513C119.776 12.9576 119.893 12.4046 119.835 11.8516C119.796 11.2986 119.62 10.7851 119.308 10.3506C119.152 10.1531 118.977 9.93588 118.801 9.79763C118.606 9.65938 118.392 9.54088 118.177 9.50138C117.729 9.40263 117.241 9.50138 116.871 9.77788C116.676 9.91613 116.52 10.1136 116.383 10.3111C116.266 10.5086 116.188 10.7456 116.188 10.9826C116.188 11.2196 116.227 11.4566 116.325 11.6739C116.383 11.7726 116.442 11.8714 116.5 11.9701C116.578 12.0689 116.656 12.1281 116.734 12.1874C116.89 12.2861 117.085 12.3256 117.28 12.2861C117.456 12.2466 117.631 12.1281 117.748 11.9701C117.865 11.8121 118.08 11.7726 118.216 11.9109C118.353 12.0491 118.392 12.2861 118.275 12.4441H118.236Z" fill="white"/>
<path d="M117.67 19.6331C117.631 19.5343 117.592 19.4553 117.553 19.3961C117.514 19.3368 117.456 19.3171 117.378 19.2973C117.222 19.2578 117.007 19.3368 116.832 19.4553C116.637 19.5738 116.481 19.7318 116.364 19.9491C116.247 20.1466 116.188 20.3836 116.188 20.6403C116.188 20.8773 116.227 21.1341 116.344 21.3316C116.442 21.5291 116.617 21.7463 116.793 21.8846C117.163 22.2006 117.631 22.3191 118.099 22.2401C118.333 22.2006 118.548 22.1018 118.743 21.9833C118.938 21.8451 119.113 21.6673 119.269 21.4501C119.581 21.0353 119.776 20.5218 119.835 19.9688C119.893 19.4158 119.815 18.8628 119.601 18.3691C119.386 17.8753 119.055 17.4606 118.626 17.1446C117.787 16.5126 116.734 16.2756 115.72 16.2559C114.687 16.2559 113.653 16.4534 112.678 16.8484C111.703 17.2433 110.787 17.8358 110.007 18.6061C109.227 19.3763 108.623 20.3441 108.233 21.4303C108.038 21.9636 107.901 22.5363 107.823 23.1091C107.745 23.6818 107.706 24.2743 107.745 24.847C107.843 25.9925 108.233 27.1183 108.857 28.007C109.481 28.9155 110.358 29.587 111.313 29.9425C111.801 30.1202 112.308 30.219 112.795 30.219C113.283 30.219 113.79 30.1005 114.238 29.8832C115.155 29.4487 115.896 28.5995 116.266 27.5725C116.442 27.059 116.559 26.4863 116.539 25.953C116.539 25.4198 116.364 24.8865 116.11 24.452C115.837 24.0175 115.486 23.662 115.057 23.4448C114.843 23.346 114.628 23.267 114.414 23.2275C114.297 23.2078 114.18 23.2078 114.082 23.1881C113.985 23.1881 113.868 23.188 113.77 23.2275C113.361 23.3065 112.932 23.5633 112.678 23.8793C112.542 24.0373 112.464 24.215 112.444 24.373C112.425 24.531 112.444 24.6298 112.503 24.7285C112.756 25.163 112.639 25.7358 112.249 26.0123C111.879 26.2888 111.372 26.1703 111.118 25.7358C111.06 25.637 111.021 25.5185 111.001 25.4L110.962 25.1828C110.923 24.9458 110.923 24.689 110.962 24.452C111.001 24.215 111.06 23.978 111.157 23.7805C111.333 23.3658 111.606 23.0696 111.879 22.8326C112.425 22.3783 113.049 22.1413 113.673 22.1216C113.829 22.1216 113.985 22.1216 114.16 22.1413C114.316 22.1611 114.472 22.2006 114.609 22.2401C114.901 22.3191 115.194 22.4573 115.447 22.6351C115.974 22.9708 116.422 23.4645 116.715 24.057C117.027 24.6298 117.183 25.3013 117.183 25.9728C117.183 26.6443 117.066 27.2763 116.832 27.8885C116.383 29.0932 115.506 30.061 114.453 30.535C113.926 30.772 113.361 30.8905 112.795 30.8905C112.23 30.8905 111.684 30.7522 111.157 30.5547C110.105 30.1597 109.169 29.3895 108.467 28.402C107.784 27.4145 107.355 26.19 107.258 24.9458C107.199 24.3138 107.258 23.6818 107.336 23.0696C107.433 22.4573 107.57 21.8451 107.784 21.2723C108.194 20.1268 108.857 19.0801 109.676 18.2703C110.495 17.4408 111.45 16.8286 112.483 16.4139C113.517 15.9991 114.589 15.7819 115.681 15.7819C116.227 15.7819 116.773 15.8609 117.3 15.9991C117.826 16.1374 118.353 16.3744 118.84 16.7299C119.308 17.0656 119.718 17.5593 119.971 18.1518C120.225 18.7443 120.342 19.3961 120.283 20.0676C120.225 20.7193 119.991 21.3513 119.62 21.8648C119.425 22.1216 119.23 22.3388 118.977 22.5363C118.723 22.7141 118.431 22.8326 118.138 22.8918C117.553 23.0103 116.91 22.8523 116.422 22.4376C116.169 22.2401 115.954 21.9833 115.798 21.6673C115.642 21.3513 115.564 20.9958 115.564 20.6403C115.564 20.2848 115.662 19.9096 115.818 19.6133C115.974 19.2973 116.227 19.0406 116.5 18.8628C116.773 18.6851 117.085 18.5468 117.475 18.6061C117.67 18.6258 117.865 18.7246 118.002 18.8826C118.158 19.0406 118.236 19.2183 118.294 19.3961C118.353 19.5936 118.294 19.8108 118.099 19.8898C117.924 19.9688 117.729 19.8701 117.67 19.6726V19.6331Z" fill="white"/>
<path d="M117.222 15.2485L215.205 15.683C215.205 15.683 215.361 15.762 215.361 15.8608C215.361 15.9595 215.302 16.0188 215.205 16.0188L117.222 16.4533C116.929 16.4533 116.695 16.1965 116.695 15.8608C116.695 15.525 116.929 15.2683 117.222 15.2485Z" fill="white"/>
<path d="M216.726 17.8555C215.751 17.8555 214.951 16.947 214.951 15.841C214.951 14.735 215.751 13.8265 216.726 13.8265C217.701 13.8265 218.5 14.735 218.5 15.841C218.5 16.947 217.701 17.8555 216.726 17.8555ZM216.726 14.024C215.848 14.024 215.127 14.8338 215.127 15.841C215.127 16.8483 215.848 17.658 216.726 17.658C217.603 17.658 218.325 16.8483 218.325 15.841C218.325 14.8338 217.603 14.024 216.726 14.024Z" fill="white"/>
<path d="M215.712 15.841C215.712 15.1893 216.18 14.6758 216.745 14.6758C217.311 14.6758 217.779 15.1893 217.779 15.841C217.779 16.4928 217.311 17.0063 216.745 17.0063C216.18 17.0063 215.712 16.4928 215.712 15.841Z" fill="white"/>
<path d="M117.241 15.3079C117.943 15.3869 118.626 15.0314 119.191 14.5179C119.776 14.0044 120.303 13.3921 120.81 12.7404C121.824 11.4566 122.818 10.1136 123.968 8.90891C124.553 8.31641 125.158 7.76342 125.821 7.28942C126.152 7.05242 126.503 6.83518 126.854 6.65743C127.205 6.45993 127.595 6.28218 127.966 6.16368C129.526 5.68969 131.261 5.98593 132.587 7.03267C133.25 7.54617 133.816 8.25716 134.186 9.06691C134.576 9.87665 134.732 10.8444 134.615 11.7529C134.401 13.5896 133.133 15.2091 131.534 15.5054C131.144 15.5646 130.735 15.5251 130.345 15.4066C129.955 15.2881 129.604 15.0709 129.292 14.7944C128.98 14.5179 128.726 14.1624 128.551 13.7674C128.356 13.3724 128.278 12.9181 128.297 12.4639C128.336 11.5554 128.843 10.7061 129.604 10.3506C129.974 10.1729 130.403 10.1531 130.813 10.2716C131.008 10.3309 131.203 10.4296 131.378 10.6074C131.554 10.7654 131.671 11.0024 131.729 11.2591C131.749 11.3776 131.69 11.4961 131.593 11.5159C131.495 11.5356 131.398 11.4764 131.378 11.3579C131.378 11.3579 131.378 11.3579 131.378 11.3381C131.339 10.9826 131.066 10.7061 130.735 10.5679C130.403 10.4296 130.013 10.4494 129.682 10.5679C129.35 10.7061 129.038 10.9826 128.824 11.3184C128.609 11.6541 128.473 12.0689 128.453 12.4836C128.395 13.3329 128.824 14.1426 129.409 14.6561C129.994 15.1696 130.774 15.3869 131.495 15.2289C131.866 15.1499 132.197 14.9919 132.509 14.7549C132.821 14.5376 133.094 14.2611 133.328 13.9254C133.796 13.2934 134.089 12.5034 134.147 11.6739C134.303 10.0346 133.465 8.43491 132.275 7.50667C131.086 6.57843 129.506 6.30193 128.102 6.75618C127.751 6.87468 127.42 7.01292 127.088 7.21042C126.737 7.38817 126.425 7.60542 126.113 7.82267C125.489 8.27691 124.885 8.79041 124.319 9.36316C123.189 10.5086 122.214 11.8319 121.161 13.1156C120.634 13.7476 120.088 14.3994 119.445 14.9326C119.133 15.1894 118.782 15.4461 118.392 15.6041C118.002 15.7621 117.573 15.8411 117.163 15.7819C117.046 15.7819 116.949 15.6436 116.968 15.5054C116.968 15.3671 117.085 15.2684 117.202 15.2881L117.241 15.3079Z" fill="white"/>
<path d="M117.222 15.9793C117.631 15.9201 118.06 15.9793 118.45 16.1373C118.84 16.2953 119.191 16.5323 119.523 16.7891C120.166 17.3223 120.712 17.9543 121.239 18.5863C122.292 19.87 123.286 21.1933 124.417 22.319C124.983 22.8918 125.567 23.4053 126.211 23.8595C126.523 24.0768 126.854 24.2743 127.186 24.4718C127.517 24.6693 127.849 24.8075 128.2 24.926C129.604 25.3605 131.164 25.084 132.373 24.136C133.562 23.2078 134.381 21.5883 134.225 19.9688C134.147 19.159 133.874 18.3691 133.387 17.7371C133.153 17.4211 132.88 17.1446 132.568 16.9273C132.256 16.6903 131.924 16.5323 131.554 16.4731C130.832 16.3151 130.052 16.5323 129.467 17.0656C128.882 17.5791 128.453 18.3888 128.531 19.238C128.551 19.6528 128.687 20.0675 128.902 20.4033C129.116 20.739 129.428 20.9958 129.76 21.1538C130.091 21.292 130.481 21.292 130.813 21.1538C131.144 21.0155 131.398 20.739 131.456 20.3638C131.456 20.2453 131.573 20.1663 131.671 20.186C131.768 20.186 131.846 20.3045 131.827 20.423C131.827 20.423 131.827 20.423 131.827 20.4428C131.768 20.6995 131.632 20.9168 131.476 21.0945C131.32 21.2723 131.125 21.371 130.91 21.4303C130.501 21.5488 130.091 21.529 129.701 21.3513C128.96 20.9958 128.434 20.1465 128.395 19.238C128.375 18.7838 128.453 18.3296 128.648 17.9346C128.824 17.5396 129.077 17.1841 129.389 16.9076C129.701 16.6311 130.052 16.4138 130.442 16.2953C130.832 16.1768 131.222 16.1373 131.632 16.1966C133.231 16.4731 134.518 18.0926 134.732 19.9293C134.849 20.8378 134.693 21.8055 134.303 22.635C133.933 23.4448 133.387 24.1558 132.724 24.689C131.398 25.7555 129.662 26.0517 128.102 25.5777C127.712 25.4592 127.322 25.3012 126.991 25.1037C126.64 24.926 126.289 24.7088 125.957 24.4718C125.295 23.9978 124.671 23.4448 124.086 22.8523C122.916 21.6673 121.921 20.3243 120.907 19.0603C120.4 18.4283 119.874 17.7963 119.269 17.3026C118.684 16.8088 118.002 16.4533 117.3 16.5323C117.183 16.5323 117.066 16.4533 117.046 16.3151C117.046 16.1768 117.124 16.0583 117.241 16.0386L117.222 15.9793Z" fill="white"/>
<path d="M130.676 11.4763C130.676 11.1208 130.93 10.8246 131.242 10.8246C131.553 10.8246 131.807 11.1208 131.807 11.4763C131.807 11.8318 131.553 12.1281 131.242 12.1281C130.93 12.1281 130.676 11.8318 130.676 11.4763Z" fill="white"/>
<path d="M131.281 20.897C131.593 20.897 131.846 20.6052 131.846 20.2453C131.846 19.8853 131.593 19.5935 131.281 19.5935C130.968 19.5935 130.715 19.8853 130.715 20.2453C130.715 20.6052 130.968 20.897 131.281 20.897Z" fill="white"/>
<path d="M116.812 19.8502C116.812 19.3367 117.183 18.922 117.631 18.922C118.08 18.922 118.45 19.3367 118.45 19.8502C118.45 20.3637 118.08 20.7785 117.631 20.7785C117.183 20.7785 116.812 20.3637 116.812 19.8502Z" fill="white"/>
<path d="M112.152 26.4467C112.83 26.4467 113.38 25.8189 113.38 25.0445C113.38 24.27 112.83 23.6422 112.152 23.6422C111.474 23.6422 110.924 24.27 110.924 25.0445C110.924 25.8189 111.474 26.4467 112.152 26.4467Z" fill="white"/>
<path d="M117.651 10.9233C118.099 10.9233 118.47 11.3381 118.47 11.8516C118.47 12.3651 118.099 12.7798 117.651 12.7798C117.202 12.7798 116.832 12.3651 116.832 11.8516C116.832 11.3381 117.202 10.9233 117.651 10.9233Z" fill="white"/>
<path d="M112.171 7.90164C112.85 7.90164 113.4 7.27384 113.4 6.49941C113.4 5.72497 112.85 5.09717 112.171 5.09717C111.493 5.09717 110.943 5.72497 110.943 6.49941C110.943 7.27384 111.493 7.90164 112.171 7.90164Z" fill="white"/>
</svg>
