<svg width="218" height="31" viewBox="0 0 218 31" fill="none" xmlns="http://www.w3.org/2000/svg">
<path d="M95.955 18.9532C96.1695 18.6614 96.501 18.4475 96.8325 18.3892C97.164 18.3308 97.5345 18.3892 97.8075 18.6031C98.3729 19.0115 98.6654 19.7311 98.6264 20.4312C98.6264 20.7812 98.4899 21.1313 98.3144 21.423C98.1389 21.7147 97.905 21.9287 97.6515 22.1231C97.1445 22.4926 96.501 22.6093 95.916 22.4537C95.6236 22.376 95.3506 22.2398 95.0971 22.0453C94.8436 21.8509 94.6486 21.6175 94.4731 21.3647C94.1221 20.859 93.9076 20.2173 93.8686 19.5755C93.8491 19.2449 93.8686 18.9337 93.9271 18.6225C93.9856 18.3114 94.1026 18.0002 94.2196 17.7279C94.4926 17.164 94.9021 16.6972 95.3896 16.3666C95.8575 16.036 96.384 15.8221 96.93 15.6859C97.4565 15.5498 98.0025 15.4915 98.5484 15.4915C99.0944 15.4915 99.6404 15.5498 100.167 15.647C100.44 15.6859 100.693 15.7637 100.966 15.8415C101.22 15.9193 101.493 16.0165 101.746 16.1138C102.253 16.3277 102.741 16.5805 103.209 16.8722C103.443 17.0084 103.677 17.2029 103.891 17.3584C104.106 17.5529 104.32 17.7279 104.515 17.9419C104.73 18.1363 104.905 18.3697 105.1 18.5836C105.276 18.817 105.451 19.0504 105.607 19.3032C105.763 19.5366 105.9 19.8089 106.056 20.0811C106.114 20.2173 106.173 20.3534 106.231 20.4895L106.329 20.7034C106.329 20.7034 106.387 20.8396 106.407 20.9174C106.816 22.0453 107.031 23.2705 106.933 24.4958C106.894 25.0986 106.777 25.721 106.563 26.2849C106.368 26.8489 106.095 27.4129 105.744 27.8797C105.412 28.3659 105.003 28.8132 104.554 29.1632C104.106 29.5133 103.618 29.8244 103.092 30.0189L102.897 30.0967C102.897 30.0967 102.76 30.1356 102.702 30.155C102.565 30.1939 102.429 30.2328 102.292 30.2717C102.019 30.3106 101.746 30.369 101.454 30.369C100.888 30.369 100.323 30.2717 99.7964 30.0578C98.7434 29.6105 97.8465 28.677 97.398 27.5102C97.164 26.9267 97.047 26.3044 97.0275 25.6626C97.0275 25.332 97.047 25.0014 97.125 24.6902C97.1835 24.3791 97.3005 24.0679 97.4565 23.7762C97.593 23.4845 97.7685 23.2122 97.983 22.9788C98.1974 22.7455 98.4119 22.5315 98.6849 22.3565C98.8019 22.2593 98.9384 22.2009 99.0749 22.1231C99.2114 22.0648 99.3479 21.987 99.5039 21.9481C99.5819 21.9287 99.6404 21.8898 99.7184 21.8703L99.9524 21.8314C99.9524 21.8314 100.108 21.812 100.186 21.7925C100.264 21.7925 100.342 21.7925 100.42 21.7925C101.064 21.7925 101.727 22.0648 102.234 22.551C102.487 22.8038 102.721 23.0955 102.897 23.4261C103.072 23.7567 103.189 24.1457 103.267 24.5347V24.6124C103.365 25.0986 103.072 25.5654 102.643 25.6626C102.214 25.7599 101.785 25.4292 101.707 24.9431C101.707 24.8458 101.707 24.768 101.707 24.6708C101.746 24.2818 101.649 23.854 101.395 23.5234C101.161 23.1733 100.791 22.9399 100.381 22.8816C100.323 22.8816 100.284 22.8816 100.225 22.8816C100.167 22.8816 100.128 22.8816 100.069 22.8816H99.8939C99.8939 22.8816 99.7769 22.9205 99.7184 22.9205C99.6014 22.9205 99.5039 22.9788 99.3869 23.0177C99.3284 23.0372 99.2894 23.0566 99.2309 23.0761C99.1724 23.0955 99.1334 23.115 99.0749 23.1539C98.8604 23.2705 98.6849 23.4261 98.5094 23.5817C98.3339 23.7567 98.1779 23.9512 98.061 24.1846C97.8075 24.6319 97.671 25.157 97.671 25.6821C97.671 26.2072 97.788 26.7711 97.9635 27.2573C98.3534 28.2686 99.0944 29.0854 100.011 29.4938C100.459 29.7077 100.966 29.805 101.454 29.7855C101.707 29.7855 101.941 29.7466 102.195 29.7077C102.312 29.6883 102.448 29.6494 102.565 29.6105C102.624 29.6105 102.682 29.5716 102.741 29.5522L102.916 29.4938C103.404 29.3382 103.852 29.066 104.262 28.7354C104.691 28.4242 105.042 28.0158 105.354 27.5879C105.666 27.1601 105.919 26.6545 106.114 26.1294C106.309 25.6043 106.426 25.0403 106.465 24.4958C106.524 23.9318 106.465 23.3678 106.407 22.7844L106.329 22.3565L106.29 22.1426L106.231 21.9287L106.114 21.5203L105.978 21.1119C105.978 21.1119 105.939 20.9757 105.9 20.9174L105.822 20.7229C105.763 20.5868 105.705 20.4701 105.646 20.3339C105.51 20.0811 105.393 19.8283 105.237 19.6144C105.1 19.381 104.925 19.1671 104.769 18.9337C104.593 18.7392 104.418 18.5059 104.223 18.3308C104.028 18.1363 103.833 17.9613 103.618 17.7863C103.404 17.6307 103.189 17.4557 102.975 17.3195C102.526 17.0278 102.058 16.775 101.571 16.5805C101.337 16.4833 101.083 16.4055 100.83 16.3083C100.576 16.2499 100.323 16.1721 100.069 16.1332C99.5624 16.036 99.0554 15.9776 98.5289 15.9776C98.0219 15.9776 97.4955 16.036 97.008 16.1721C96.5205 16.3083 96.033 16.5027 95.6236 16.7945C95.2141 17.0862 94.8631 17.4946 94.6291 17.9613C94.4146 18.4475 94.3171 18.992 94.3561 19.5366C94.3951 20.0811 94.5901 20.5868 94.8826 21.0146C95.0386 21.2091 95.2141 21.423 95.3896 21.5591C95.5846 21.6953 95.7991 21.812 96.0135 21.8509C96.462 21.9481 96.9495 21.8509 97.32 21.5786C97.515 21.4425 97.671 21.248 97.8075 21.0535C97.9245 20.859 98.0024 20.6257 98.0024 20.3923C98.0024 20.1589 97.9635 19.9255 97.866 19.7116C97.8075 19.6144 97.749 19.5171 97.6905 19.4199C97.6125 19.3227 97.5345 19.2643 97.4565 19.206C97.3005 19.1087 97.1055 19.0698 96.9105 19.1087C96.735 19.1476 96.5595 19.2643 96.4425 19.4199C96.3255 19.5755 96.111 19.6144 95.9745 19.4782C95.8381 19.3421 95.7991 19.1087 95.916 18.9532H95.955Z" fill="#80633E"/>
<path d="M96.5202 11.8743C96.5592 11.9715 96.5982 12.0493 96.6372 12.1076C96.6762 12.166 96.7347 12.1854 96.8127 12.2049C96.9687 12.2438 97.1832 12.166 97.3587 12.0493C97.5537 11.9326 97.7097 11.777 97.8267 11.5631C97.9437 11.3686 98.0022 11.1353 98.0022 10.8824C98.0022 10.6491 97.9632 10.3962 97.8462 10.2018C97.7487 10.0073 97.5732 9.79336 97.3977 9.65723C97.0272 9.34607 96.5592 9.22938 96.0913 9.30717C95.8573 9.34607 95.6428 9.4433 95.4478 9.55999C95.2528 9.69612 95.0773 9.87116 94.9213 10.0851C94.6093 10.4935 94.4143 10.9991 94.3558 11.5437C94.2973 12.0882 94.3753 12.6327 94.5898 13.1189C94.8043 13.6051 95.1358 14.0135 95.5648 14.3247C96.4032 14.947 97.4562 15.1804 98.4701 15.1998C99.5036 15.1998 100.537 15.0054 101.512 14.6164C102.487 14.2274 103.403 13.644 104.183 12.8856C104.963 12.1271 105.568 11.1742 105.958 10.1045C106.153 9.57944 106.289 9.01545 106.367 8.45147C106.445 7.88749 106.484 7.30405 106.445 6.74007C106.348 5.6121 105.958 4.50358 105.334 3.62843C104.71 2.73384 103.832 2.07261 102.877 1.72255C102.389 1.54752 101.882 1.45029 101.395 1.45029C100.908 1.45029 100.401 1.56697 99.9521 1.7809C99.0356 2.20875 98.2947 3.045 97.9242 4.05628C97.7487 4.56192 97.6317 5.12591 97.6512 5.651C97.6512 6.17609 97.8267 6.70117 98.0802 7.12902C98.3531 7.55687 98.7041 7.90693 99.1331 8.12086C99.3476 8.2181 99.5621 8.29589 99.7766 8.33478C99.8936 8.35423 100.011 8.35423 100.108 8.37368C100.206 8.37368 100.323 8.37368 100.42 8.33478C100.83 8.25699 101.259 8.00417 101.512 7.69301C101.649 7.53743 101.726 7.3624 101.746 7.20682C101.765 7.05123 101.746 6.95399 101.687 6.85676C101.434 6.42891 101.551 5.86492 101.941 5.59265C102.311 5.32038 102.818 5.43707 103.072 5.86492C103.13 5.96216 103.169 6.07885 103.189 6.19553L103.228 6.40946C103.267 6.64283 103.267 6.89565 103.228 7.12902C103.189 7.3624 103.13 7.59577 103.033 7.79025C102.857 8.19865 102.584 8.49037 102.311 8.72374C101.765 9.17104 101.142 9.40441 100.518 9.42386C100.362 9.42386 100.206 9.42386 100.03 9.40441C99.8741 9.38496 99.7181 9.34607 99.5816 9.30717C99.2891 9.22938 98.9966 9.09325 98.7431 8.91822C98.2167 8.5876 97.7682 8.10141 97.4757 7.51798C97.1637 6.95399 97.0077 6.29277 97.0077 5.63155C97.0077 4.97033 97.1247 4.348 97.3587 3.74512C97.8072 2.55881 98.6846 1.60587 99.7376 1.13912C100.264 0.905749 100.83 0.789062 101.395 0.789062C101.96 0.789062 102.506 0.925197 103.033 1.11967C104.086 1.50863 105.022 2.26709 105.724 3.23948C106.406 4.21186 106.835 5.41762 106.933 6.64283C106.991 7.26516 106.933 7.88749 106.855 8.49037C106.757 9.09325 106.621 9.69613 106.406 10.2601C105.997 11.3881 105.334 12.4188 104.515 13.2162C103.696 14.033 102.74 14.6359 101.707 15.0443C100.693 15.4527 99.6011 15.6666 98.5091 15.6666C97.9632 15.6666 97.4172 15.5888 96.8712 15.4527C96.3447 15.2971 95.8183 15.0831 95.3308 14.7331C94.8628 14.4025 94.4533 13.9163 94.1998 13.3329C93.9464 12.7494 93.8294 12.0882 93.8879 11.4464C93.9464 10.8046 94.1803 10.1823 94.5508 9.67668C94.7458 9.42386 94.9408 9.20993 95.1943 9.01545C95.4478 8.84043 95.7403 8.72374 96.0328 8.6654C96.6177 8.54871 97.2612 8.70429 97.7487 9.11269C98.0022 9.30717 98.2167 9.55999 98.3726 9.87116C98.5286 10.1823 98.6066 10.5324 98.6066 10.8824C98.6066 11.2325 98.5091 11.602 98.3531 11.8937C98.1972 12.2049 97.9437 12.4577 97.6707 12.6327C97.3977 12.8078 97.0857 12.9439 96.6957 12.8856C96.5007 12.8661 96.3057 12.7689 96.1692 12.6133C96.0133 12.4577 95.9353 12.2827 95.8768 12.1076C95.8183 11.9132 95.8768 11.6992 96.0718 11.6215C96.2472 11.5437 96.4422 11.6409 96.5007 11.8354L96.5202 11.8743Z" fill="#80633E"/>
<path d="M96.9886 16.1917L3.31493 15.7638C3.31493 15.7638 3.15894 15.686 3.15894 15.5888C3.15894 15.4916 3.21743 15.4332 3.31493 15.4332L96.9886 15.0054C97.2811 15.0054 97.5151 15.2582 97.5151 15.5888C97.5151 15.9194 97.2811 16.1722 96.9886 16.1917Z" fill="#80633E"/>
<path d="M1.77442 17.5726C0.799463 17.5726 0 16.678 0 15.5889C0 14.4998 0.799463 13.6052 1.77442 13.6052C2.74937 13.6052 3.54884 14.4998 3.54884 15.5889C3.54884 16.678 2.74937 17.5726 1.77442 17.5726ZM1.77442 13.7997C0.896959 13.7997 0.175492 14.5971 0.175492 15.5889C0.175492 16.5807 0.896959 17.3781 1.77442 17.3781C2.65188 17.3781 3.37335 16.5807 3.37335 15.5889C3.37335 14.5971 2.65188 13.7997 1.77442 13.7997Z" fill="#80633E"/>
<path d="M2.78834 15.5888C2.78834 16.2306 2.32036 16.7362 1.75489 16.7362C1.18941 16.7362 0.721436 16.2306 0.721436 15.5888C0.721436 14.947 1.18941 14.4414 1.75489 14.4414C2.32036 14.4414 2.78834 14.947 2.78834 15.5888Z" fill="#80633E"/>
<path d="M96.9495 16.1333C96.2476 16.0555 95.5651 16.4056 94.9996 16.9112C94.4147 17.4169 93.8882 18.0198 93.3812 18.6615C92.3673 19.9256 91.3728 21.2481 90.2224 22.4344C89.6374 23.0178 89.0329 23.5624 88.3699 24.0291C88.0384 24.2625 87.6875 24.4764 87.3365 24.6514C86.9855 24.8459 86.5955 25.0209 86.225 25.1376C84.6651 25.6044 82.9297 25.3127 81.6037 24.2819C80.9408 23.7763 80.3753 23.0762 80.0048 22.2788C79.6148 21.4815 79.4588 20.5285 79.5758 19.6339C79.7903 17.8253 81.0578 16.2306 82.6567 15.9389C83.0467 15.8805 83.4562 15.9194 83.8461 16.0361C84.2361 16.1528 84.5871 16.3667 84.8991 16.639C85.2111 16.9112 85.4646 17.2613 85.6401 17.6503C85.835 18.0392 85.913 18.4865 85.8935 18.9338C85.8545 19.8284 85.3476 20.6647 84.5871 21.0147C84.2166 21.1897 83.7876 21.2092 83.3782 21.0925C83.1832 21.0342 82.9882 20.9369 82.8127 20.7619C82.6567 20.6063 82.5202 20.3729 82.4617 20.1201C82.4422 20.0034 82.5007 19.8867 82.5982 19.8673C82.6957 19.8479 82.7932 19.9062 82.8127 20.0229C82.8127 20.0229 82.8127 20.0229 82.8127 20.0423C82.8517 20.3924 83.1247 20.6647 83.4562 20.8008C83.7876 20.9369 84.1776 20.9175 84.5091 20.8008C84.8406 20.6647 85.1526 20.3924 85.3671 20.0618C85.5816 19.7312 85.7181 19.3228 85.7376 18.9144C85.7961 18.0781 85.3671 17.2807 84.7821 16.7751C84.1971 16.2695 83.4172 16.0555 82.6957 16.2111C82.3252 16.2889 81.9937 16.4445 81.6817 16.6779C81.3698 16.8918 81.0968 17.1641 80.8628 17.4947C80.3948 18.117 80.1023 18.9144 80.0438 19.7117C79.8878 21.3259 80.7263 22.9011 81.9157 23.8152C83.1052 24.7292 84.6846 25.0015 86.0885 24.5542C86.4395 24.4375 86.771 24.3014 87.1025 24.1069C87.4535 23.9319 87.7655 23.718 88.0774 23.504C88.7014 23.0567 89.3059 22.5511 89.8714 21.9871C91.0023 20.8591 91.9773 19.5561 93.0302 18.292C93.5567 17.6697 94.1027 17.0279 94.7461 16.5028C95.0581 16.25 95.4091 15.9972 95.7991 15.8416C96.1891 15.686 96.6181 15.6082 97.0275 15.6666C97.1445 15.6666 97.242 15.8027 97.2225 15.9389C97.2225 16.075 97.1055 16.1722 96.9885 16.1528L96.9495 16.1333Z" fill="#80633E"/>
<path d="M96.9691 15.4527C96.5596 15.5111 96.1306 15.4527 95.7406 15.2972C95.3507 15.1416 94.9997 14.9082 94.6682 14.6554C94.0247 14.1303 93.4788 13.508 92.9523 12.8856C91.8993 11.6215 90.9049 10.3185 89.7739 9.21003C89.2085 8.64604 88.6235 8.1404 87.98 7.6931C87.668 7.47918 87.3365 7.2847 87.005 7.09022C86.6736 6.89574 86.3421 6.75961 85.9911 6.64292C84.5872 6.21507 83.0272 6.48734 81.8183 7.42083C80.6288 8.33488 79.8099 9.92959 79.9659 11.5438C80.0439 12.3411 80.3169 13.119 80.8043 13.7413C81.0383 14.0525 81.3113 14.3248 81.6233 14.5387C81.9353 14.7721 82.2668 14.9277 82.6373 14.986C83.3587 15.1416 84.1387 14.9277 84.7237 14.4026C85.3086 13.8969 85.7376 13.0996 85.6596 12.2633C85.6401 11.8549 85.5036 11.4465 85.2891 11.1159C85.0746 10.7853 84.7627 10.5325 84.4312 10.3769C84.0997 10.2408 83.7097 10.2408 83.3782 10.3769C83.0467 10.513 82.7932 10.7853 82.7347 11.1548C82.7347 11.2715 82.6178 11.3493 82.5203 11.3298C82.4228 11.3298 82.3448 11.2131 82.3643 11.0965C82.3643 11.0965 82.3643 11.0965 82.3643 11.077C82.4228 10.8242 82.5593 10.6103 82.7152 10.4352C82.8712 10.2602 83.0662 10.163 83.2807 10.1046C83.6902 9.98793 84.0997 10.0074 84.4897 10.1824C85.2306 10.5325 85.7571 11.3687 85.7961 12.2633C85.8156 12.7106 85.7376 13.1579 85.5426 13.5469C85.3671 13.9358 85.1136 14.2859 84.8017 14.5582C84.4897 14.8304 84.1387 15.0443 83.7487 15.161C83.3587 15.2777 82.9687 15.3166 82.5593 15.2583C80.9603 14.986 79.6734 13.3913 79.4589 11.5826C79.3419 10.6881 79.4979 9.73511 79.8879 8.91831C80.2584 8.12095 80.8043 7.42083 81.4673 6.89574C82.7932 5.84557 84.5287 5.55385 86.0886 6.0206C86.4786 6.13728 86.8686 6.29287 87.2 6.50679C87.551 6.68182 87.902 6.89574 88.2335 7.12912C88.8965 7.59586 89.5204 8.1404 90.1054 8.72383C91.2754 9.8907 92.2698 11.2131 93.2838 12.4578C93.7907 13.0801 94.3172 13.7025 94.9217 14.1886C95.5067 14.6748 96.1891 15.0249 96.8911 14.9471C97.0081 14.9471 97.1251 15.0249 97.1251 15.161C97.1251 15.2972 97.0471 15.4139 96.9301 15.4333L96.9691 15.4527Z" fill="#80633E"/>
<path d="M83.5147 19.9062C83.5147 20.2562 83.2612 20.548 82.9493 20.548C82.6373 20.548 82.3838 20.2562 82.3838 19.9062C82.3838 19.5561 82.6373 19.2644 82.9493 19.2644C83.2612 19.2644 83.5147 19.5561 83.5147 19.9062Z" fill="#80633E"/>
<path d="M82.9297 11.8937C83.242 11.8937 83.4952 11.6063 83.4952 11.2519C83.4952 10.8974 83.242 10.6101 82.9297 10.6101C82.6174 10.6101 82.3643 10.8974 82.3643 11.2519C82.3643 11.6063 82.6174 11.8937 82.9297 11.8937Z" fill="#80633E"/>
<path d="M97.3786 11.6408C97.3786 12.1465 97.0082 12.5549 96.5597 12.5549C96.1112 12.5549 95.7407 12.1465 95.7407 11.6408C95.7407 11.1352 96.1112 10.7268 96.5597 10.7268C97.0082 10.7268 97.3786 11.1352 97.3786 11.6408Z" fill="#80633E"/>
<path d="M103.287 6.52605C103.287 7.28451 102.741 7.90684 102.058 7.90684C101.376 7.90684 100.83 7.28451 100.83 6.52605C100.83 5.76759 101.376 5.14526 102.058 5.14526C102.741 5.14526 103.287 5.76759 103.287 6.52605Z" fill="#80633E"/>
<path d="M96.5401 20.4314C96.9924 20.4314 97.3591 20.0221 97.3591 19.5173C97.3591 19.0125 96.9924 18.6033 96.5401 18.6033C96.0878 18.6033 95.7212 19.0125 95.7212 19.5173C95.7212 20.0221 96.0878 20.4314 96.5401 20.4314Z" fill="#80633E"/>
<path d="M102.019 26.1878C101.337 26.1878 100.791 25.5655 100.791 24.8071C100.791 24.0486 101.337 23.4263 102.019 23.4263C102.702 23.4263 103.248 24.0486 103.248 24.8071C103.248 25.5655 102.702 26.1878 102.019 26.1878Z" fill="#80633E"/>
<path d="M117.736 12.2437C117.521 12.5354 117.19 12.7493 116.858 12.8077C116.527 12.866 116.156 12.8077 115.883 12.5938C115.318 12.1854 115.025 11.4658 115.064 10.7657C115.064 10.4156 115.201 10.0656 115.376 9.77384C115.552 9.48212 115.786 9.2682 116.039 9.07372C116.546 8.70421 117.19 8.58753 117.775 8.74311C118.067 8.8209 118.34 8.95703 118.594 9.15151C118.847 9.34599 119.042 9.57936 119.218 9.83218C119.569 10.3378 119.783 10.9796 119.822 11.6214C119.842 11.952 119.822 12.2631 119.764 12.5743C119.705 12.8855 119.588 13.1966 119.471 13.4689C119.198 14.0329 118.789 14.4996 118.301 14.8303C117.833 15.1609 117.307 15.3748 116.761 15.5109C116.234 15.6471 115.688 15.7054 115.142 15.7054C114.596 15.7054 114.05 15.6471 113.524 15.5498C113.251 15.5109 112.997 15.4331 112.724 15.3553C112.471 15.2775 112.198 15.1803 111.944 15.0831C111.437 14.8691 110.95 14.6163 110.482 14.3246C110.248 14.1885 110.034 13.994 109.8 13.8384C109.585 13.6439 109.371 13.4689 109.176 13.255C108.961 13.0605 108.786 12.8271 108.591 12.6132C108.415 12.3798 108.24 12.1465 108.084 11.8936C107.928 11.6603 107.791 11.388 107.635 11.1157C107.577 10.9796 107.518 10.8435 107.46 10.7073L107.362 10.4934C107.362 10.4934 107.304 10.3573 107.284 10.2795C106.875 9.15151 106.66 7.9263 106.758 6.7011C106.797 6.09822 106.914 5.47589 107.128 4.91191C107.323 4.34792 107.596 3.78394 107.947 3.31719C108.279 2.831 108.688 2.3837 109.137 2.03364C109.585 1.68358 110.073 1.37242 110.599 1.17794L110.794 1.10015C110.794 1.10015 110.93 1.06125 110.989 1.04181C111.125 1.00291 111.262 0.964015 111.398 0.92512C111.671 0.886224 111.944 0.827881 112.237 0.827881C112.802 0.827881 113.368 0.92512 113.894 1.13904C114.947 1.58634 115.844 2.51983 116.293 3.6867C116.527 4.27013 116.644 4.89246 116.663 5.53423C116.663 5.86484 116.644 6.19546 116.566 6.50662C116.507 6.81778 116.39 7.12895 116.234 7.42066C116.098 7.71238 115.922 7.98465 115.708 8.21802C115.493 8.45139 115.279 8.66532 115.006 8.84035C114.889 8.93759 114.752 8.99593 114.616 9.07372C114.479 9.13206 114.343 9.20985 114.187 9.24875C114.109 9.2682 114.05 9.30709 113.972 9.32654L113.738 9.36544C113.738 9.36544 113.582 9.38488 113.504 9.40433C113.426 9.40433 113.348 9.40433 113.27 9.40433C112.627 9.40433 111.964 9.13206 111.457 8.64587C111.203 8.39305 110.969 8.10133 110.794 7.77072C110.619 7.44011 110.502 7.05116 110.424 6.6622V6.58441C110.326 6.09822 110.619 5.63147 111.047 5.53423C111.476 5.43699 111.905 5.76761 111.983 6.2538C111.983 6.35104 111.983 6.42883 111.983 6.52607C111.944 6.91502 112.042 7.34287 112.295 7.67348C112.529 8.02354 112.9 8.25692 113.309 8.31526C113.368 8.31526 113.407 8.31526 113.465 8.31526C113.524 8.31526 113.563 8.31526 113.621 8.31526H113.797C113.797 8.31526 113.914 8.27636 113.972 8.27636C114.089 8.27636 114.187 8.21802 114.304 8.17912C114.362 8.15968 114.401 8.14023 114.46 8.12078C114.518 8.10133 114.557 8.08189 114.616 8.04299C114.83 7.9263 115.006 7.77072 115.181 7.61514C115.357 7.44011 115.513 7.24563 115.63 7.01226C115.883 6.56496 116.02 6.03987 116.02 5.51479C116.02 4.9897 115.903 4.42571 115.727 3.93952C115.337 2.92824 114.596 2.11143 113.68 1.70303C113.231 1.4891 112.724 1.39187 112.237 1.41131C111.983 1.41131 111.749 1.45021 111.496 1.4891C111.379 1.50855 111.242 1.54745 111.125 1.58634C111.067 1.58634 111.009 1.62524 110.95 1.64469L110.775 1.70303C110.287 1.85861 109.839 2.13088 109.429 2.46149C109 2.77265 108.649 3.18106 108.337 3.60891C108.025 4.03676 107.772 4.5424 107.577 5.06749C107.382 5.59258 107.265 6.15656 107.226 6.7011C107.167 7.26508 107.226 7.82907 107.284 8.4125L107.362 8.84035L107.401 9.05427L107.46 9.2682L107.577 9.6766L107.713 10.085C107.713 10.085 107.752 10.2211 107.791 10.2795L107.869 10.474C107.928 10.6101 107.986 10.7268 108.045 10.8629C108.181 11.1157 108.298 11.3686 108.454 11.5825C108.591 11.8159 108.766 12.0298 108.922 12.2631C109.098 12.4576 109.273 12.691 109.468 12.866C109.663 13.0605 109.858 13.2355 110.073 13.4106C110.287 13.5661 110.502 13.7412 110.716 13.8773C111.164 14.169 111.632 14.4218 112.12 14.6163C112.354 14.7136 112.607 14.7914 112.861 14.8886C113.114 14.9469 113.368 15.0247 113.621 15.0636C114.128 15.1609 114.635 15.2192 115.162 15.2192C115.669 15.2192 116.195 15.1609 116.683 15.0247C117.17 14.8886 117.658 14.6941 118.067 14.4024C118.477 14.1107 118.828 13.7023 119.062 13.2355C119.276 12.7493 119.393 12.2048 119.335 11.6603C119.296 11.1157 119.12 10.6101 118.808 10.1822C118.652 9.98776 118.477 9.77384 118.301 9.63771C118.106 9.50157 117.892 9.38488 117.677 9.34599C117.229 9.24875 116.741 9.34599 116.371 9.61826C116.176 9.75439 116.02 9.94887 115.883 10.1433C115.766 10.3378 115.688 10.5712 115.688 10.8046C115.688 11.0379 115.727 11.2713 115.825 11.4852C115.883 11.5825 115.942 11.6797 116 11.777C116.078 11.8742 116.156 11.9325 116.234 11.9909C116.39 12.0881 116.585 12.127 116.78 12.0881C116.956 12.0492 117.131 11.9325 117.248 11.777C117.365 11.6214 117.58 11.5825 117.716 11.7186C117.853 11.8547 117.892 12.0881 117.775 12.2437H117.736Z" fill="#80633E"/>
<path d="M117.17 19.3226C117.131 19.2253 117.092 19.1476 117.053 19.0892C117.014 19.0309 116.956 19.0114 116.878 18.992C116.722 18.9531 116.507 19.0309 116.332 19.1476C116.137 19.2642 115.981 19.4198 115.864 19.6337C115.747 19.8282 115.688 20.0616 115.688 20.3144C115.688 20.5478 115.727 20.8006 115.844 20.9951C115.942 21.1896 116.117 21.4035 116.293 21.5396C116.663 21.8508 117.131 21.9675 117.599 21.8897C117.833 21.8508 118.048 21.7535 118.243 21.6369C118.438 21.5007 118.613 21.3257 118.769 21.1118C119.081 20.7034 119.276 20.1977 119.335 19.6532C119.393 19.1087 119.315 18.5641 119.101 18.0779C118.886 17.5917 118.555 17.1833 118.126 16.8722C117.287 16.2498 116.234 16.0165 115.22 15.997C114.187 15.997 113.153 16.1915 112.178 16.5805C111.203 16.9694 110.287 17.5528 109.507 18.3113C108.727 19.0698 108.123 20.0227 107.733 21.0923C107.538 21.6174 107.401 22.1814 107.323 22.7454C107.245 23.3094 107.206 23.8928 107.245 24.4568C107.343 25.5848 107.733 26.6933 108.357 27.5684C108.981 28.463 109.858 29.1242 110.813 29.4743C111.301 29.6493 111.808 29.7466 112.295 29.7466C112.783 29.7466 113.29 29.6299 113.738 29.416C114.655 28.9881 115.396 28.1519 115.766 27.1406C115.942 26.6349 116.059 26.0709 116.039 25.5459C116.039 25.0208 115.864 24.4957 115.61 24.0678C115.337 23.64 114.986 23.2899 114.557 23.076C114.343 22.9788 114.128 22.901 113.914 22.8621C113.797 22.8426 113.68 22.8426 113.582 22.8232C113.485 22.8232 113.368 22.8232 113.27 22.8621C112.861 22.9399 112.432 23.1927 112.178 23.5038C112.042 23.6594 111.964 23.8345 111.944 23.99C111.925 24.1456 111.944 24.2429 112.003 24.3401C112.256 24.7679 112.139 25.3319 111.749 25.6042C111.379 25.8765 110.872 25.7598 110.618 25.3319C110.56 25.2347 110.521 25.118 110.501 25.0013L110.462 24.7874C110.423 24.554 110.423 24.3012 110.462 24.0678C110.501 23.8345 110.56 23.6011 110.657 23.4066C110.833 22.9982 111.106 22.7065 111.379 22.4731C111.925 22.0258 112.549 21.7924 113.173 21.773C113.329 21.773 113.485 21.773 113.66 21.7924C113.816 21.8119 113.972 21.8508 114.109 21.8897C114.401 21.9675 114.694 22.1036 114.947 22.2786C115.474 22.6092 115.922 23.0954 116.215 23.6789C116.527 24.2429 116.683 24.9041 116.683 25.5653C116.683 26.2265 116.566 26.8489 116.332 27.4517C115.883 28.638 115.006 29.591 113.953 30.0577C113.426 30.2911 112.861 30.4078 112.295 30.4078C111.73 30.4078 111.184 30.2717 110.657 30.0772C109.605 29.6882 108.669 28.9298 107.967 27.9574C107.284 26.985 106.855 25.7792 106.758 24.554C106.699 23.9317 106.758 23.3094 106.836 22.7065C106.933 22.1036 107.07 21.5007 107.284 20.9367C107.694 19.8088 108.357 18.778 109.176 17.9807C109.995 17.1639 110.95 16.561 111.983 16.1526C113.017 15.7442 114.089 15.5303 115.181 15.5303C115.727 15.5303 116.273 15.6081 116.8 15.7442C117.326 15.8803 117.853 16.1137 118.34 16.4638C118.808 16.7944 119.218 17.2806 119.471 17.864C119.725 18.4474 119.842 19.0892 119.783 19.7504C119.725 20.3922 119.491 21.0145 119.12 21.5202C118.925 21.773 118.73 21.9869 118.477 22.1814C118.223 22.3564 117.931 22.4731 117.638 22.5315C117.053 22.6481 116.41 22.4926 115.922 22.0842C115.669 21.8897 115.454 21.6369 115.298 21.3257C115.142 21.0145 115.064 20.6645 115.064 20.3144C115.064 19.9644 115.162 19.5949 115.318 19.3031C115.474 18.992 115.727 18.7391 116 18.5641C116.273 18.3891 116.585 18.253 116.975 18.3113C117.17 18.3307 117.365 18.428 117.502 18.5836C117.658 18.7392 117.736 18.9142 117.794 19.0892C117.853 19.2837 117.794 19.4976 117.599 19.5754C117.424 19.6532 117.229 19.556 117.17 19.3615V19.3226Z" fill="#80633E"/>
<path d="M116.722 15.0054L214.705 15.4332C214.705 15.4332 214.861 15.511 214.861 15.6083C214.861 15.7055 214.802 15.7638 214.705 15.7638L116.722 16.1917C116.429 16.1917 116.195 15.9389 116.195 15.6083C116.195 15.2776 116.429 15.0248 116.722 15.0054Z" fill="#80633E"/>
<path d="M216.226 17.5723C215.251 17.5723 214.451 16.6777 214.451 15.5886C214.451 14.4996 215.251 13.605 216.226 13.605C217.201 13.605 218 14.4996 218 15.5886C218 16.6777 217.201 17.5723 216.226 17.5723ZM216.226 13.7995C215.348 13.7995 214.627 14.5968 214.627 15.5886C214.627 16.5805 215.348 17.3778 216.226 17.3778C217.103 17.3778 217.825 16.5805 217.825 15.5886C217.825 14.5968 217.103 13.7995 216.226 13.7995Z" fill="#80633E"/>
<path d="M215.212 15.5886C215.212 14.9468 215.68 14.4412 216.245 14.4412C216.811 14.4412 217.279 14.9468 217.279 15.5886C217.279 16.2304 216.811 16.736 216.245 16.736C215.68 16.736 215.212 16.2304 215.212 15.5886Z" fill="#80633E"/>
<path d="M116.741 15.0636C117.443 15.1413 118.126 14.7913 118.691 14.2856C119.276 13.78 119.803 13.1771 120.31 12.5353C121.324 11.2712 122.318 9.9488 123.468 8.76249C124.053 8.17906 124.658 7.63452 125.321 7.16777C125.652 6.9344 126.003 6.72048 126.354 6.54545C126.705 6.35097 127.095 6.17594 127.466 6.05925C129.026 5.59251 130.761 5.88422 132.087 6.91495C132.75 7.42059 133.316 8.12071 133.686 8.91807C134.076 9.71543 134.232 10.6684 134.115 11.563C133.901 13.3716 132.633 14.9663 131.034 15.258C130.644 15.3164 130.235 15.2775 129.845 15.1608C129.455 15.0441 129.104 14.8302 128.792 14.5579C128.48 14.2856 128.226 13.9356 128.051 13.5466C127.856 13.1577 127.778 12.7104 127.797 12.2631C127.836 11.3685 128.343 10.5322 129.104 10.1822C129.474 10.0071 129.903 9.98769 130.313 10.1044C130.508 10.1627 130.703 10.26 130.878 10.435C131.054 10.5906 131.171 10.8239 131.229 11.0768C131.249 11.1935 131.19 11.3101 131.093 11.3296C130.995 11.349 130.898 11.2907 130.878 11.174C130.878 11.174 130.878 11.174 130.878 11.1546C130.839 10.8045 130.566 10.5322 130.235 10.3961C129.903 10.26 129.513 10.2794 129.182 10.3961C128.85 10.5322 128.538 10.8045 128.324 11.1351C128.109 11.4657 127.973 11.8741 127.953 12.2825C127.895 13.1188 128.324 13.9161 128.909 14.4218C129.494 14.9274 130.274 15.1413 130.995 14.9858C131.366 14.908 131.697 14.7524 132.009 14.519C132.321 14.3051 132.594 14.0328 132.828 13.7022C133.296 13.0799 133.589 12.302 133.647 11.4852C133.803 9.87101 132.965 8.29574 131.775 7.3817C130.586 6.46765 129.006 6.19539 127.602 6.64268C127.251 6.75937 126.92 6.89551 126.588 7.08998C126.237 7.26501 125.925 7.47894 125.613 7.69286C124.989 8.14016 124.385 8.6458 123.819 9.20979C122.689 10.3378 121.714 11.6408 120.661 12.9049C120.134 13.5272 119.588 14.169 118.945 14.694C118.633 14.9469 118.282 15.1997 117.892 15.3553C117.502 15.5109 117.073 15.5886 116.663 15.5303C116.546 15.5303 116.449 15.3942 116.468 15.258C116.468 15.1219 116.585 15.0247 116.702 15.0441L116.741 15.0636Z" fill="#80633E"/>
<path d="M116.722 15.7248C117.131 15.6665 117.56 15.7248 117.95 15.8804C118.34 16.036 118.691 16.2694 119.023 16.5222C119.666 17.0473 120.212 17.6696 120.739 18.2919C121.792 19.556 122.786 20.859 123.917 21.9676C124.483 22.5315 125.067 23.0372 125.711 23.4845C126.023 23.6984 126.354 23.8929 126.686 24.0874C127.017 24.2818 127.349 24.418 127.7 24.5347C129.104 24.9625 130.664 24.6902 131.873 23.7567C133.062 22.8427 133.881 21.248 133.725 19.6533C133.647 18.8559 133.374 18.078 132.887 17.4557C132.653 17.1445 132.38 16.8722 132.068 16.6583C131.756 16.4249 131.424 16.2694 131.054 16.211C130.332 16.0554 129.552 16.2694 128.967 16.7945C128.382 17.3001 127.953 18.0975 128.031 18.9337C128.051 19.3421 128.187 19.7505 128.402 20.0811C128.616 20.4117 128.928 20.6646 129.26 20.8201C129.591 20.9563 129.981 20.9563 130.313 20.8201C130.644 20.684 130.898 20.4117 130.956 20.0422C130.956 19.9255 131.073 19.8477 131.171 19.8672C131.268 19.8672 131.346 19.9839 131.327 20.1006C131.327 20.1006 131.327 20.1006 131.327 20.12C131.268 20.3728 131.132 20.5868 130.976 20.7618C130.82 20.9368 130.625 21.0341 130.41 21.0924C130.001 21.2091 129.591 21.1896 129.201 21.0146C128.46 20.6646 127.934 19.8283 127.895 18.9337C127.875 18.4864 127.953 18.0391 128.148 17.6502C128.324 17.2612 128.577 16.9111 128.889 16.6389C129.201 16.3666 129.552 16.1527 129.942 16.036C130.332 15.9193 130.722 15.8804 131.132 15.9388C132.731 16.211 134.018 17.8057 134.232 19.6144C134.349 20.509 134.193 21.4619 133.803 22.2787C133.433 23.0761 132.887 23.7762 132.224 24.3013C130.898 25.3515 129.162 25.6432 127.602 25.1764C127.212 25.0597 126.822 24.9042 126.491 24.7097C126.14 24.5347 125.789 24.3207 125.457 24.0874C124.795 23.6206 124.171 23.0761 123.586 22.4926C122.416 21.3258 121.421 20.0033 120.407 18.7587C119.9 18.1363 119.374 17.514 118.769 17.0278C118.184 16.5416 117.502 16.1916 116.8 16.2694C116.683 16.2694 116.566 16.1916 116.546 16.0554C116.546 15.9193 116.624 15.8026 116.741 15.7832L116.722 15.7248Z" fill="#80633E"/>
<path d="M130.176 11.2907C130.176 10.9406 130.43 10.6489 130.742 10.6489C131.053 10.6489 131.307 10.9406 131.307 11.2907C131.307 11.6408 131.053 11.9325 130.742 11.9325C130.43 11.9325 130.176 11.6408 130.176 11.2907Z" fill="#80633E"/>
<path d="M130.781 20.5672C131.093 20.5672 131.346 20.2799 131.346 19.9255C131.346 19.571 131.093 19.2837 130.781 19.2837C130.468 19.2837 130.215 19.571 130.215 19.9255C130.215 20.2799 130.468 20.5672 130.781 20.5672Z" fill="#80633E"/>
<path d="M116.312 19.5366C116.312 19.031 116.683 18.6226 117.131 18.6226C117.58 18.6226 117.95 19.031 117.95 19.5366C117.95 20.0422 117.58 20.4506 117.131 20.4506C116.683 20.4506 116.312 20.0422 116.312 19.5366Z" fill="#80633E"/>
<path d="M111.652 26.0321C112.33 26.0321 112.88 25.4139 112.88 24.6513C112.88 23.8887 112.33 23.2705 111.652 23.2705C110.974 23.2705 110.424 23.8887 110.424 24.6513C110.424 25.4139 110.974 26.0321 111.652 26.0321Z" fill="#80633E"/>
<path d="M117.151 10.7463C117.599 10.7463 117.97 11.1547 117.97 11.6604C117.97 12.166 117.599 12.5744 117.151 12.5744C116.702 12.5744 116.332 12.166 116.332 11.6604C116.332 11.1547 116.702 10.7463 117.151 10.7463Z" fill="#80633E"/>
<path d="M111.671 7.77061C112.35 7.77061 112.9 7.15241 112.9 6.38982C112.9 5.62723 112.35 5.00903 111.671 5.00903C110.993 5.00903 110.443 5.62723 110.443 6.38982C110.443 7.15241 110.993 7.77061 111.671 7.77061Z" fill="#80633E"/>
</svg>
