<svg width="60" height="42" viewBox="0 0 60 42" fill="none" xmlns="http://www.w3.org/2000/svg">
<path d="M12 0C10.41 0 9 0.627631 7.77 1.79323C6.54 2.95883 6 4.33365 6 5.97744V14.9436C4.35 14.9436 3 15.5115 1.8 16.707C0.6 17.9024 0 19.337 0 20.9211V35.8647H3.99L6 41.8421H9L11.01 35.8647H48.99L51 41.8421H54L56.01 35.8647H60V20.9211C60 19.337 59.37 17.9323 58.2 16.707C57 15.5115 55.65 14.9436 54 14.9436V5.97744C54 4.33365 53.43 2.98872 52.23 1.79323C51.03 0.597744 49.59 0 48 0M12 5.97744H27V14.9436H12M33 5.97744H48V14.9436H33V5.97744Z" fill="white"/>
</svg>
