<svg width="19" height="22" viewBox="0 0 19 22" fill="none" xmlns="http://www.w3.org/2000/svg">
<path d="M6.62564 12.3199H4.97574C4.7035 12.3199 4.48077 12.0972 4.48077 11.825V10.175C4.48077 9.90281 4.7035 9.68008 4.97574 9.68008H6.62564C6.89788 9.68008 7.12061 9.90281 7.12061 10.175V11.825C7.12061 12.0972 6.89788 12.3199 6.62564 12.3199ZM11.0804 11.825V10.175C11.0804 9.90281 10.8576 9.68008 10.5854 9.68008H8.93551C8.66327 9.68008 8.44054 9.90281 8.44054 10.175V11.825C8.44054 12.0972 8.66327 12.3199 8.93551 12.3199H10.5854C10.8576 12.3199 11.0804 12.0972 11.0804 11.825ZM15.0402 11.825V10.175C15.0402 9.90281 14.8174 9.68008 14.5452 9.68008H12.8953C12.623 9.68008 12.4003 9.90281 12.4003 10.175V11.825C12.4003 12.0972 12.623 12.3199 12.8953 12.3199H14.5452C14.8174 12.3199 15.0402 12.0972 15.0402 11.825ZM11.0804 15.7847V14.1348C11.0804 13.8626 10.8576 13.6398 10.5854 13.6398H8.93551C8.66327 13.6398 8.44054 13.8626 8.44054 14.1348V15.7847C8.44054 16.057 8.66327 16.2797 8.93551 16.2797H10.5854C10.8576 16.2797 11.0804 16.057 11.0804 15.7847ZM7.12061 15.7847V14.1348C7.12061 13.8626 6.89788 13.6398 6.62564 13.6398H4.97574C4.7035 13.6398 4.48077 13.8626 4.48077 14.1348V15.7847C4.48077 16.057 4.7035 16.2797 4.97574 16.2797H6.62564C6.89788 16.2797 7.12061 16.057 7.12061 15.7847ZM15.0402 15.7847V14.1348C15.0402 13.8626 14.8174 13.6398 14.5452 13.6398H12.8953C12.623 13.6398 12.4003 13.8626 12.4003 14.1348V15.7847C12.4003 16.057 12.623 16.2797 12.8953 16.2797H14.5452C14.8174 16.2797 15.0402 16.057 15.0402 15.7847ZM18.9999 5.06034V19.5795C18.9999 20.6726 18.1131 21.5594 17.02 21.5594H2.50088C1.40782 21.5594 0.520996 20.6726 0.520996 19.5795V5.06034C0.520996 3.96728 1.40782 3.08046 2.50088 3.08046H4.48077V0.935584C4.48077 0.66335 4.7035 0.440613 4.97574 0.440613H6.62564C6.89788 0.440613 7.12061 0.66335 7.12061 0.935584V3.08046H12.4003V0.935584C12.4003 0.66335 12.623 0.440613 12.8953 0.440613H14.5452C14.8174 0.440613 15.0402 0.66335 15.0402 0.935584V3.08046H17.02C18.1131 3.08046 18.9999 3.96728 18.9999 5.06034ZM17.02 19.332V7.04023H2.50088V19.332C2.50088 19.4681 2.61225 19.5795 2.74837 19.5795H16.7726C16.9087 19.5795 17.02 19.4681 17.02 19.332Z" fill="#AA8453"/>
</svg>
