<svg width="33" height="32" viewBox="0 0 33 32" fill="none" xmlns="http://www.w3.org/2000/svg">
<path d="M11.1667 2.66675V6.66675" stroke="white" stroke-width="2" stroke-miterlimit="10" stroke-linecap="round" stroke-linejoin="round"/>
<path d="M21.8333 2.66675V6.66675" stroke="white" stroke-width="2" stroke-miterlimit="10" stroke-linecap="round" stroke-linejoin="round"/>
<path d="M5.16675 12.1201H27.8334" stroke="white" stroke-width="2" stroke-miterlimit="10" stroke-linecap="round" stroke-linejoin="round"/>
<path d="M29.8334 25.3333C29.8334 26.3333 29.5534 27.28 29.0601 28.08C28.1401 29.6267 26.4467 30.6667 24.5001 30.6667C23.1534 30.6667 21.9268 30.1733 20.9934 29.3333C20.5801 28.9867 20.2201 28.56 19.9401 28.08C19.4468 27.28 19.1667 26.3333 19.1667 25.3333C19.1667 22.3867 21.5534 20 24.5001 20C26.1001 20 27.5267 20.7066 28.5001 21.8133C29.3267 22.76 29.8334 23.9867 29.8334 25.3333Z" stroke="white" stroke-width="2" stroke-miterlimit="10" stroke-linecap="round" stroke-linejoin="round"/>
<path d="M22.4199 25.3333L23.7399 26.6533L26.5799 24.0266" stroke="white" stroke-width="1.25" stroke-linecap="round" stroke-linejoin="round"/>
<path d="M28.5 11.3334V21.8134C27.5267 20.7067 26.1 20.0001 24.5 20.0001C21.5533 20.0001 19.1667 22.3867 19.1667 25.3334C19.1667 26.3334 19.4467 27.2801 19.94 28.0801C20.22 28.5601 20.58 28.9867 20.9933 29.3334H11.1667C6.5 29.3334 4.5 26.6667 4.5 22.6667V11.3334C4.5 7.33341 6.5 4.66675 11.1667 4.66675H21.8333C26.5 4.66675 28.5 7.33341 28.5 11.3334Z" stroke="white" stroke-width="2" stroke-miterlimit="10" stroke-linecap="round" stroke-linejoin="round"/>
<path d="M16.4941 18.2665H16.506" stroke="white" stroke-width="2" stroke-linecap="round" stroke-linejoin="round"/>
<path d="M11.559 18.2665H11.571" stroke="white" stroke-width="2" stroke-linecap="round" stroke-linejoin="round"/>
<path d="M11.559 22.2665H11.571" stroke="white" stroke-width="2" stroke-linecap="round" stroke-linejoin="round"/>
</svg>
