<svg width="12" height="12" viewBox="0 0 12 12" fill="none" xmlns="http://www.w3.org/2000/svg">
<path d="M10.9852 9.16497C10.9852 9.34497 10.9452 9.52997 10.8602 9.70997C10.7752 9.88997 10.6652 10.06 10.5202 10.22C10.2752 10.49 10.0052 10.685 9.70024 10.81C9.40024 10.935 9.07524 11 8.72524 11C8.21524 11 7.67024 10.88 7.09524 10.635C6.52024 10.39 5.94524 10.06 5.37524 9.64497C4.80024 9.22497 4.25524 8.75997 3.73524 8.24497C3.22024 7.72497 2.75524 7.17997 2.34024 6.60997C1.93024 6.03997 1.60024 5.46997 1.36024 4.90497C1.12024 4.33497 1.00024 3.78997 1.00024 3.26997C1.00024 2.92997 1.06024 2.60497 1.18024 2.30497C1.30024 1.99997 1.49024 1.71997 1.75524 1.46997C2.07524 1.15497 2.42524 0.999969 2.79524 0.999969C2.93524 0.999969 3.07524 1.02997 3.20024 1.08997C3.33024 1.14997 3.44524 1.23997 3.53524 1.36997L4.69524 3.00497C4.78524 3.12997 4.85024 3.24497 4.89524 3.35497C4.94024 3.45997 4.96524 3.56497 4.96524 3.65997C4.96524 3.77997 4.93024 3.89997 4.86024 4.01497C4.79524 4.12997 4.70024 4.24997 4.58024 4.36997L4.20024 4.76497C4.14524 4.81997 4.12024 4.88497 4.12024 4.96497C4.12024 5.00497 4.12524 5.03997 4.13524 5.07997C4.15024 5.11997 4.16524 5.14997 4.17524 5.17997C4.26524 5.34497 4.42024 5.55997 4.64024 5.81997C4.86524 6.07997 5.10524 6.34497 5.36524 6.60997C5.63524 6.87497 5.89524 7.11997 6.16024 7.34497C6.42024 7.56497 6.63524 7.71497 6.80524 7.80497C6.83024 7.81497 6.86024 7.82997 6.89524 7.84497C6.93524 7.85997 6.97524 7.86497 7.02024 7.86497C7.10524 7.86497 7.17024 7.83497 7.22524 7.77997L7.60524 7.40497C7.73024 7.27997 7.85024 7.18497 7.96524 7.12497C8.08024 7.05497 8.19524 7.01997 8.32024 7.01997C8.41524 7.01997 8.51524 7.03997 8.62524 7.08497C8.73524 7.12997 8.85024 7.19497 8.97524 7.27997L10.6302 8.45497C10.7602 8.54497 10.8502 8.64997 10.9052 8.77497C10.9552 8.89997 10.9852 9.02497 10.9852 9.16497Z" stroke="#AA8453" stroke-miterlimit="10"/>
<path d="M9.25 4.49997C9.25 4.19997 9.015 3.73997 8.665 3.36497C8.345 3.01997 7.92 2.74997 7.5 2.74997" stroke="#AA8453" stroke-linecap="round" stroke-linejoin="round"/>
<path d="M11 4.49997C11 2.56497 9.435 0.999969 7.5 0.999969" stroke="#AA8453" stroke-linecap="round" stroke-linejoin="round"/>
</svg>
