<svg width="16" height="17" viewBox="0 0 16 17" fill="none" xmlns="http://www.w3.org/2000/svg">
<g clip-path="url(#clip0_7_441)">
<path d="M15.1167 0.5H0.883333C0.395333 0.5 0 0.895333 0 1.38333V15.6173C0 16.1047 0.395333 16.5 0.883333 16.5H8.54667V10.304H6.46133V7.88933H8.54667V6.10867C8.54667 4.042 9.80867 2.91667 11.6527 2.91667C12.536 2.91667 13.2947 2.98267 13.516 3.012V5.172L12.2373 5.17267C11.2347 5.17267 11.0407 5.64933 11.0407 6.348V7.89H13.432L13.1207 10.3047H11.0407V16.5H15.118C15.6047 16.5 16 16.1047 16 15.6167V1.38333C16 0.895333 15.6047 0.5 15.1167 0.5V0.5Z" fill="white"/>
</g>
<defs>
<clipPath id="clip0_7_441">
<rect width="16" height="16" fill="white" transform="translate(0 0.5)"/>
</clipPath>
</defs>
</svg>
