<svg width="56" height="56" viewBox="0 0 56 56" fill="none" xmlns="http://www.w3.org/2000/svg">
<path d="M43.4255 56H47.6509C49.7891 56 51.5455 54.3455 51.8 52.2582L56 10.3091H43.2727V0H38.2582V10.3091H25.6073L26.3709 16.2655C30.7236 17.4618 34.7964 19.6255 37.24 22.0182C40.9055 25.6327 43.4255 29.3745 43.4255 35.4836V56ZM0 53.4545V50.9091H38.2582V53.4545C38.2582 54.8291 37.1127 56 35.6364 56H2.54545C1.14545 56 0 54.8291 0 53.4545ZM38.2582 35.6364C38.2582 15.2727 0 15.2727 0 35.6364H38.2582ZM0 40.7273H38.1818V45.8182H0V40.7273Z" fill="white"/>
</svg>
