<svg width="18" height="17" viewBox="0 0 18 17" fill="none" xmlns="http://www.w3.org/2000/svg">
<path d="M16.9531 2.79761C17.2207 2.79761 17.4375 2.58085 17.4375 2.31323V1.34448C17.4375 1.07687 17.2207 0.860107 16.9531 0.860107H0.484375C0.216758 0.860107 0 1.07687 0 1.34448V2.31323C0 2.58085 0.216758 2.79761 0.484375 2.79761H0.968145V14.4226H0.484375C0.216758 14.4226 0 14.6394 0 14.907V15.8757C0 16.1433 0.216758 16.3601 0.484375 16.3601H7.75V13.9382C7.75 13.6718 7.96797 13.4539 8.23438 13.4539H9.20312C9.46953 13.4539 9.6875 13.6718 9.6875 13.9382V16.3601H16.9531C17.2207 16.3601 17.4375 16.1433 17.4375 15.8757V14.907C17.4375 14.6394 17.2207 14.4226 16.9531 14.4226H16.4688V2.79761H16.9531ZM7.75 4.15386C7.75 3.96011 7.94375 3.76636 8.1375 3.76636H9.3C9.49375 3.76636 9.6875 3.96011 9.6875 4.15386V5.31636C9.6875 5.51011 9.49375 5.70386 9.3 5.70386H8.1375C7.94375 5.70386 7.75 5.51011 7.75 5.31636V4.15386ZM7.75 7.06011C7.75 6.86636 7.94375 6.67261 8.1375 6.67261H9.3C9.49375 6.67261 9.6875 6.86636 9.6875 7.06011V8.22261C9.6875 8.41636 9.49375 8.61011 9.3 8.61011H8.1375C7.94375 8.61011 7.75 8.41636 7.75 8.22261V7.06011ZM3.875 4.15386C3.875 3.96011 4.06875 3.76636 4.2625 3.76636H5.425C5.61875 3.76636 5.8125 3.96011 5.8125 4.15386V5.31636C5.8125 5.51011 5.61875 5.70386 5.425 5.70386H4.2625C4.06875 5.70386 3.875 5.51011 3.875 5.31636V4.15386ZM5.425 8.61011H4.2625C4.06875 8.61011 3.875 8.41636 3.875 8.22261V7.06011C3.875 6.86636 4.06875 6.67261 4.2625 6.67261H5.425C5.61875 6.67261 5.8125 6.86636 5.8125 7.06011V8.22261C5.8125 8.41636 5.61875 8.61011 5.425 8.61011ZM5.8125 12.4851C5.8125 10.88 7.11365 9.57886 8.71875 9.57886C10.3238 9.57886 11.625 10.88 11.625 12.4851H5.8125ZM13.5625 8.22261C13.5625 8.41636 13.3688 8.61011 13.175 8.61011H12.0125C11.8187 8.61011 11.625 8.41636 11.625 8.22261V7.06011C11.625 6.86636 11.8187 6.67261 12.0125 6.67261H13.175C13.3688 6.67261 13.5625 6.86636 13.5625 7.06011V8.22261ZM13.5625 5.31636C13.5625 5.51011 13.3688 5.70386 13.175 5.70386H12.0125C11.8187 5.70386 11.625 5.51011 11.625 5.31636V4.15386C11.625 3.96011 11.8187 3.76636 12.0125 3.76636H13.175C13.3688 3.76636 13.5625 3.96011 13.5625 4.15386V5.31636Z" fill="white"/>
</svg>
