<svg width="16" height="17" viewBox="0 0 16 17" fill="none" xmlns="http://www.w3.org/2000/svg">
<g clip-path="url(#clip0_7_439)">
<path d="M8 1.942C10.136 1.942 10.3893 1.95 11.2333 1.98867C13.4013 2.08733 14.414 3.116 14.5127 5.268C14.5513 6.11133 14.5587 6.36467 14.5587 8.50067C14.5587 10.6373 14.5507 10.89 14.5127 11.7333C14.4133 13.8833 13.4033 14.914 11.2333 15.0127C10.3893 15.0513 10.1373 15.0593 8 15.0593C5.864 15.0593 5.61067 15.0513 4.76733 15.0127C2.594 14.9133 1.58667 13.88 1.488 11.7327C1.44933 10.8893 1.44133 10.6367 1.44133 8.5C1.44133 6.364 1.45 6.11133 1.488 5.26733C1.58733 3.116 2.59733 2.08667 4.76733 1.988C5.61133 1.95 5.864 1.942 8 1.942ZM8 0.5C5.82733 0.5 5.55533 0.509333 4.702 0.548C1.79667 0.681333 0.182 2.29333 0.0486667 5.20133C0.00933333 6.05533 0 6.32733 0 8.5C0 10.6727 0.00933333 10.9453 0.048 11.7987C0.181333 14.704 1.79333 16.3187 4.70133 16.452C5.55533 16.4907 5.82733 16.5 8 16.5C10.1727 16.5 10.4453 16.4907 11.2987 16.452C14.2013 16.3187 15.82 14.7067 15.9513 11.7987C15.9907 10.9453 16 10.6727 16 8.5C16 6.32733 15.9907 6.05533 15.952 5.202C15.8213 2.29933 14.2073 0.682 11.2993 0.548667C10.4453 0.509333 10.1727 0.5 8 0.5ZM8 4.392C5.73133 4.392 3.892 6.23133 3.892 8.5C3.892 10.7687 5.73133 12.6087 8 12.6087C10.2687 12.6087 12.108 10.7693 12.108 8.5C12.108 6.23133 10.2687 4.392 8 4.392ZM8 11.1667C6.52733 11.1667 5.33333 9.97333 5.33333 8.5C5.33333 7.02733 6.52733 5.83333 8 5.83333C9.47267 5.83333 10.6667 7.02733 10.6667 8.5C10.6667 9.97333 9.47267 11.1667 8 11.1667ZM12.2707 3.27C11.74 3.27 11.31 3.7 11.31 4.23C11.31 4.76 11.74 5.19 12.2707 5.19C12.8007 5.19 13.23 4.76 13.23 4.23C13.23 3.7 12.8007 3.27 12.2707 3.27Z" fill="white"/>
</g>
<defs>
<clipPath id="clip0_7_439">
<rect width="16" height="16" fill="white" transform="translate(0 0.5)"/>
</clipPath>
</defs>
</svg>
