<svg width="10" height="15" viewBox="0 0 10 15" fill="none" xmlns="http://www.w3.org/2000/svg">
<path d="M5 0.9375C2.23571 0.9375 0 2.99156 0 5.53125C0 8.97656 5 14.0625 5 14.0625C5 14.0625 10 8.97656 10 5.53125C10 2.99156 7.76429 0.9375 5 0.9375ZM1.42857 5.53125C1.42857 3.72 3.02857 2.25 5 2.25C6.97143 2.25 8.57143 3.72 8.57143 5.53125C8.57143 7.42125 6.51429 10.2497 5 12.015C3.51429 10.2628 1.42857 7.40156 1.42857 5.53125Z" fill="#AA8453"/>
<path d="M5 7.5C6.10457 7.5 7 6.66053 7 5.625C7 4.58947 6.10457 3.75 5 3.75C3.89543 3.75 3 4.58947 3 5.625C3 6.66053 3.89543 7.5 5 7.5Z" fill="#AA8453"/>
</svg>
