<svg width="16" height="17" viewBox="0 0 16 17" fill="none" xmlns="http://www.w3.org/2000/svg">
<path d="M16 8.5C16 12.9194 12.4194 16.5 8 16.5C7.17419 16.5 6.38065 16.3742 5.63226 16.1419C5.95806 15.6097 6.44516 14.7387 6.62581 14.0452C6.72258 13.671 7.12258 12.1419 7.12258 12.1419C7.38387 12.6387 8.14516 13.0613 8.95484 13.0613C11.3677 13.0613 13.1065 10.8419 13.1065 8.08387C13.1065 5.44194 10.9484 3.46452 8.17419 3.46452C4.72258 3.46452 2.8871 5.78064 2.8871 8.30645C2.8871 9.48065 3.5129 10.9419 4.50968 11.4065C4.66129 11.4774 4.74194 11.4452 4.77742 11.3C4.80323 11.1903 4.93871 10.6452 5 10.3935C5.01935 10.3129 5.00968 10.2419 4.94516 10.1645C4.61935 9.76129 4.35484 9.02581 4.35484 8.33871C4.35484 6.57419 5.69032 4.86774 7.96774 4.86774C9.93226 4.86774 11.3097 6.20645 11.3097 8.12258C11.3097 10.2871 10.2161 11.7871 8.79355 11.7871C8.00968 11.7871 7.41935 11.1387 7.60968 10.3419C7.83548 9.39032 8.27097 8.36452 8.27097 7.67742C8.27097 7.06452 7.94194 6.55161 7.25806 6.55161C6.45484 6.55161 5.80968 7.38065 5.80968 8.49355C5.80968 9.20323 6.04839 9.68064 6.04839 9.68064C6.04839 9.68064 5.25806 13.029 5.1129 13.6548C4.95161 14.3452 5.01613 15.3194 5.08387 15.9516C2.10968 14.7871 0 11.8903 0 8.5C0 4.08065 3.58065 0.5 8 0.5C12.4194 0.5 16 4.08065 16 8.5Z" fill="white"/>
</svg>
