<svg width="54" height="54" viewBox="0 0 54 54" fill="none" xmlns="http://www.w3.org/2000/svg">
<path d="M35.991 24.4387C32.859 26.6794 30.618 30.081 29.943 33.9685L25.785 26.0045L15.282 36.4522L16.2 43.2014L13.365 46.063L8.586 37.4511L0 32.6997L2.862 29.838L9.558 30.7829L20.061 20.2542L0 9.77953L3.807 5.973L28.647 11.6963L39.15 1.1946C40.716 -0.3982 43.281 -0.3982 44.874 1.1946C46.44 2.7874 46.44 5.40607 44.874 6.91788L34.371 17.4196L35.991 24.4387ZM54 36.4522C54 43.4713 44.55 54 44.55 54C44.55 54 35.1 43.4713 35.1 36.4522C35.1 31.3228 39.42 27.0034 44.55 27.0034C49.68 27.0034 54 31.3228 54 36.4522ZM47.79 36.7222C47.79 35.1024 46.17 33.4826 44.55 33.4826C42.93 33.4826 41.31 34.8324 41.31 36.7222C41.31 38.342 42.66 39.9618 44.55 39.9618C46.44 39.9618 48.06 38.342 47.79 36.7222Z" fill="white"/>
</svg>
