<svg width="56" height="54" viewBox="0 0 56 54" fill="none" xmlns="http://www.w3.org/2000/svg">
<path d="M0 36.4C4.676 34.3 9.324 32.2 14 31.276V8.4C14 6.17218 14.885 4.03561 16.4603 2.4603C18.0356 0.884998 20.1722 0 22.4 0C26.068 0 29.176 2.324 30.324 5.6H22.4C21.6574 5.6 20.9452 5.895 20.4201 6.4201C19.895 6.9452 19.6 7.65739 19.6 8.4V11.2H33.6V8.4C33.6 6.17218 34.485 4.03561 36.0603 2.4603C37.6356 0.884998 39.7722 0 42 0C45.668 0 48.776 2.324 49.924 5.6H42C41.2574 5.6 40.5452 5.895 40.0201 6.4201C39.495 6.9452 39.2 7.65739 39.2 8.4V36.232C44.8 35.336 50.4 30.8 56 30.8V36.4C49.784 36.4 43.568 42 37.324 42C31.108 42 24.892 36.4 18.676 36.4C12.432 36.4 6.216 39.2 0 42V36.4ZM33.6 16.8H19.6V22.4H33.6V16.8ZM33.6 28H19.6V30.8C24.276 31.248 28.924 34.468 33.6 35.812V28ZM0 47.6C6.216 44.8 12.432 42 18.676 42C24.892 42 31.108 47.6 37.324 47.6C43.568 47.6 49.784 42 56 42V47.6C49.784 47.6 43.568 53.2 37.324 53.2C31.108 53.2 24.892 47.6 18.676 47.6C12.432 47.6 6.216 50.4 0 53.2V47.6Z" fill="white"/>
</svg>
