<svg width="52" height="46" viewBox="0 0 52 46" fill="none" xmlns="http://www.w3.org/2000/svg">
<path d="M5.77778 17.2391L10.1111 4.30978H41.8889L46.2222 17.2391M41.8889 31.6051C40.7396 31.6051 39.6374 31.151 38.8248 30.3428C38.0121 29.5345 37.5556 28.4383 37.5556 27.2953C37.5556 26.1523 38.0121 25.0561 38.8248 24.2478C39.6374 23.4396 40.7396 22.9855 41.8889 22.9855C43.0382 22.9855 44.1404 23.4396 44.953 24.2478C45.7657 25.0561 46.2222 26.1523 46.2222 27.2953C46.2222 28.4383 45.7657 29.5345 44.953 30.3428C44.1404 31.151 43.0382 31.6051 41.8889 31.6051ZM10.1111 31.6051C8.96184 31.6051 7.85964 31.151 7.04698 30.3428C6.23432 29.5345 5.77778 28.4383 5.77778 27.2953C5.77778 26.1523 6.23432 25.0561 7.04698 24.2478C7.85964 23.4396 8.96184 22.9855 10.1111 22.9855C11.2604 22.9855 12.3626 23.4396 13.1752 24.2478C13.9879 25.0561 14.4444 26.1523 14.4444 27.2953C14.4444 28.4383 13.9879 29.5345 13.1752 30.3428C12.3626 31.151 11.2604 31.6051 10.1111 31.6051ZM45.9911 2.87319C45.4133 1.20674 43.7956 0 41.8889 0H10.1111C8.20444 0 6.58667 1.20674 6.00889 2.87319L0 20.1123V43.0978C0 43.8598 0.304364 44.5907 0.846136 45.1295C1.38791 45.6683 2.12271 45.971 2.88889 45.971H5.77778C6.54396 45.971 7.27876 45.6683 7.82053 45.1295C8.3623 44.5907 8.66667 43.8598 8.66667 43.0978V40.2246H43.3333V43.0978C43.3333 43.8598 43.6377 44.5907 44.1795 45.1295C44.7212 45.6683 45.456 45.971 46.2222 45.971H49.1111C49.8773 45.971 50.6121 45.6683 51.1539 45.1295C51.6956 44.5907 52 43.8598 52 43.0978V20.1123L45.9911 2.87319Z" fill="white"/>
</svg>
