<svg width="56" height="47" viewBox="0 0 56 47" fill="none" xmlns="http://www.w3.org/2000/svg">
<path d="M28 46.375L37.3333 34.0083C34.7407 32.076 31.5 30.9167 28 30.9167C24.5 30.9167 21.2593 32.076 18.6667 34.0083L28 46.375ZM28 0C17.5 0 7.8037 3.45236 0 9.275L4.66667 15.4583C11.1481 10.6147 19.237 7.72917 28 7.72917C36.763 7.72917 44.8519 10.6147 51.3333 15.4583L56 9.275C48.1963 3.45236 38.5 0 28 0ZM28 15.4583C21 15.4583 14.5444 17.7513 9.33333 21.6417L14 27.825C17.8889 24.9137 22.737 23.1875 28 23.1875C33.263 23.1875 38.1111 24.9137 42 27.825L46.6667 21.6417C41.4556 17.7513 35 15.4583 28 15.4583Z" fill="white"/>
</svg>
